<svg id="Capa_1" enable-background="new 0 0 512 512" height="512" viewBox="0 0 512 512" width="512" xmlns="http://www.w3.org/2000/svg"><g><g><g><g><g><path d="m338.437 49.783h-257.696c-13.377 0-24.221 10.844-24.221 24.221v406.275c0 13.377 10.844 24.221 24.221 24.221h309.269c13.377 0 24.221-10.844 24.221-24.221v-354.703z" fill="#d3d7de"/></g><g><g><g><g><g><g><g><g><g><g><path d="m97.769 31.721v406.275c0 13.377 10.844 24.221 24.221 24.221h309.269c13.377 0 24.221-10.844 24.221-24.221v-323.679l-106.817-106.817h-226.673c-13.377 0-24.221 10.844-24.221 24.221z" fill="#eaecf0"/><path d="m371.958 30.795v107.504c0 10.107 8.193 18.301 18.301 18.301h11.812v305.617h29.188c13.377 0 24.221-10.844 24.221-24.221v-323.679z" fill="#d3d7de"/><path d="m348.663 7.5 106.817 106.817h-88.517c-10.107 0-18.301-8.194-18.301-18.301v-88.516z" fill="#df705d"/></g></g></g></g></g></g></g></g></g></g></g></g></g><g><path d="m141.72 76.771h138.162c4.143 0 7.5-3.357 7.5-7.5s-3.357-7.5-7.5-7.5h-138.162c-4.143 0-7.5 3.357-7.5 7.5s3.357 7.5 7.5 7.5z"/><path d="m141.72 121.911h138.162c4.143 0 7.5-3.357 7.5-7.5s-3.357-7.5-7.5-7.5h-138.162c-4.143 0-7.5 3.357-7.5 7.5s3.357 7.5 7.5 7.5z"/><path d="m411.176 201.071h-269.456c-4.143 0-7.5 3.357-7.5 7.5s3.357 7.5 7.5 7.5h269.456c4.143 0 7.5-3.357 7.5-7.5s-3.358-7.5-7.5-7.5z"/><path d="m411.176 256.264h-269.456c-4.143 0-7.5 3.357-7.5 7.5s3.357 7.5 7.5 7.5h269.456c4.143 0 7.5-3.357 7.5-7.5s-3.358-7.5-7.5-7.5z"/><path d="m411.176 311.456h-269.456c-4.143 0-7.5 3.357-7.5 7.5s3.357 7.5 7.5 7.5h269.456c4.143 0 7.5-3.357 7.5-7.5s-3.358-7.5-7.5-7.5z"/><path d="m411.176 366.648h-269.456c-4.143 0-7.5 3.357-7.5 7.5s3.357 7.5 7.5 7.5h269.456c4.143 0 7.5-3.357 7.5-7.5s-3.358-7.5-7.5-7.5z"/><path d="m460.784 109.014-106.818-106.818c-1.407-1.406-3.315-2.196-5.304-2.196h-226.672c-17.491 0-31.72 14.229-31.72 31.721v406.275c0 17.491 14.229 31.721 31.721 31.721h309.269c17.491 0 31.722-14.229 31.722-31.721v-323.679c-.002-1.989-.792-3.896-2.198-5.303zm-104.622-83.408 81.212 81.211h-70.411c-5.956 0-10.801-4.845-10.801-10.801zm75.097 429.111h-309.269c-9.22 0-16.721-7.501-16.721-16.721v-406.275c0-9.22 7.501-16.721 16.721-16.721h219.172v81.017c0 14.227 11.574 25.801 25.801 25.801h81.018v316.179c-.001 9.219-7.502 16.72-16.722 16.72z"/><path d="m401.834 492.103c-3.159 3.158-7.358 4.897-11.824 4.897h-309.269c-9.221 0-16.722-7.501-16.722-16.721v-406.275c0-4.185 1.554-8.19 4.375-11.277 2.795-3.058 2.581-7.802-.477-10.596-3.058-2.795-7.801-2.582-10.596.477-5.354 5.858-8.303 13.457-8.303 21.396v406.275c.002 17.492 14.232 31.721 31.723 31.721h309.269c8.472 0 16.438-3.299 22.43-9.29 2.93-2.929 2.93-7.677.001-10.606s-7.678-2.93-10.607-.001z"/></g></g></svg>