<svg width="3332" height="581" xmlns="http://www.w3.org/2000/svg">
 <defs>
  <style type="text/css">
   <![CDATA[
    .fil0 {fill:#313030;fill-rule:nonzero}
   ]]>
  </style>
 </defs>
 <g>
  <title>background</title>
  <rect fill="none" id="canvas_background" height="583" width="3334" y="-1" x="-1"/>
 </g>
 <g>
  <title>Layer 1</title>
  <metadata id="CorelCorpID_0Corel-Layer"/>
  <path transform="rotate(0.48198047280311584 374.73364257803723,898.3920288085939) " id="svg_16" d="m-1341.573627,1002.516998c10,-7 20,-14 30,-22c10,-8 21,-16 31,-23c24,-19 47,-39 71,-58c-6,8 -12,16 -18,25c-6,8 -12,16 -18,24c-3,4 -6,9 -10,13c-3,5 -6,9 -9,15c-2,5 -4,10 -6,15c-3,9 1,19 7,26c3,3 7,6 12,7c5,1 9,1 14,0c6,-1 11,-2 17,-3c4,-1 7,-2 11,-4c4,-2 8,-3 12,-5c13,-6 24,-14 36,-22c13,-9 26,-17 39,-26c13,-9 26,-19 39,-29c12,-9 24,-18 35,-27c-1,2 -2,3 -3,5c-11,15 -22,29 -33,44c-7,8 -14,17 -20,25c-3,5 -6,10 -8,16c-2,4 -3,8 -3,12c-1,4 -1,8 -2,13c-1,7 -1,13 2,19c3,5 9,10 15,11c9,1 17,3 26,4c4,1 8,1 13,0c4,0 8,-1 12,-2c8,-1 15,-5 23,-8c8,-3 15,-7 23,-10c31,-15 61,-33 90,-52c14,-9 27,-18 40,-27c-9,11 -18,23 -27,34c-6,7 -11,14 -17,21c-5,7 -9,13 -12,21c-2,7 -4,13 -5,20c-2,9 0,18 7,25c3,3 7,5 11,7c5,1 9,1 14,0c2,0 5,-1 7,-1c8,-1 16,-2 24,-4c8,-1 16,-5 24,-8c17,-7 32,-15 47,-24c31,-18 60,-37 89,-57c4,-3 8,-6 13,-9c0,0 -1,1 -1,1c-3,4 -6,9 -7,14c-2,8 0,17 1,24c3,14 19,21 31,18c8,-2 17,-4 25,-7c10,-3 20,-8 30,-12c19,-9 37,-20 55,-31c14,-8 27,-17 40,-26c26,-17 52,-34 77,-52c14,-10 29,-20 43,-30c-6,7 -12,15 -19,22c-3,3 -6,6 -8,10c-6,7 -12,14 -18,21c-6,8 -7,18 -8,27c0,4 1,8 2,12c1,2 1,4 2,5c1,4 3,7 4,11c1,5 4,9 7,12c5,5 13,9 19,8c16,-2 32,-3 48,-6c16,-2 31,-9 45,-15c29,-13 57,-28 85,-44c20,-12 39,-24 59,-36c-5,5 -9,10 -14,15c-9,10 -18,20 -27,30c-6,7 -13,14 -19,21c-10,11 -18,24 -26,36c-7,12 -3,30 10,37c4,2 7,4 11,5c4,2 8,3 12,4c9,2 17,0 26,-2c8,-2 16,-6 24,-9c10,-4 19,-10 28,-15c8,-4 16,-8 23,-12c8,-4 16,-9 23,-13c14,-8 27,-16 40,-25c4,-3 8,-5 12,-8c-2,4 -4,7 -6,11c-5,8 -5,19 0,27c5,8 13,13 23,13c6,0 12,1 19,1c4,-1 9,-1 13,-2c4,-1 8,-2 12,-3c8,-3 16,-6 23,-10c8,-4 15,-8 22,-12c15,-9 30,-18 44,-27c16,-9 31,-19 47,-29c32,-21 63,-43 94,-64c5,-4 10,-7 15,-11c-1,1 -2,3 -3,4c-12,15 -24,29 -35,44c-6,7 -12,15 -18,22c-7,9 -15,18 -22,27c-3,5 -6,9 -9,15c-4,7 -6,15 -9,23c-2,6 -1,14 3,20c4,8 13,13 22,13c4,0 8,0 12,0c4,0 8,0 12,0c10,0 20,-3 29,-6c8,-2 15,-6 23,-9c9,-4 19,-9 28,-14c35,-19 69,-38 102,-59c33,-21 64,-42 96,-64c16,-11 31,-22 46,-33c0,1 -1,1 -1,2c-9,11 -18,22 -27,34c-6,7 -11,14 -17,21c-2,3 -4,5 -6,8c-1,3 -3,6 -4,9c-1,3 -1,7 -1,10c0,6 2,10 4,15c4,12 15,19 28,16c15,-4 31,-8 46,-12c15,-5 29,-11 43,-18c18,-8 36,-18 53,-27c22,-12 44,-23 65,-35c20,-11 41,-22 61,-34c-6,6 -12,11 -18,17c-17,16 -34,32 -51,48c-19,18 -38,36 -57,55c-11,11 -22,23 -34,34c-7,7 -16,14 -23,21c-2,3 -4,5 -6,8c-2,3 -3,6 -4,9c-1,3 -1,7 -2,10c0,5 1,10 1,15c1,6 2,11 6,15c6,6 14,7 21,6c13,-3 26,-6 39,-9c13,-3 26,-7 38,-12c27,-11 53,-24 78,-38c11,-6 23,-12 34,-19c9,-5 18,-10 27,-16c10,-6 20,-12 30,-18c-3,3 -6,5 -9,8c-4,3 -8,6 -11,9c-2,3 -4,5 -6,8c-1,3 -3,6 -4,9c-1,5 -1,9 0,14c0,4 1,7 3,10c4,9 11,16 21,19c13,4 26,2 38,-1c7,-2 14,-5 21,-8c7,-3 13,-6 20,-9c20,-8 39,-16 58,-25c20,-10 40,-21 60,-31c13,-7 25,-14 38,-22c28,-16 56,-31 83,-48c19,-12 37,-23 56,-35c-7,7 -13,15 -20,22c-7,8 -14,15 -20,23c-7,8 -14,17 -21,25c-6,8 -11,18 -16,28c-8,14 -1,33 15,38c6,2 12,3 18,5c4,1 8,1 13,1c4,-1 8,-1 13,-2c8,-1 16,-5 23,-8c8,-3 15,-7 22,-11c13,-7 27,-14 41,-21c17,-9 33,-18 49,-28c14,-8 28,-17 42,-25c-1,1 -3,3 -4,4c-8,7 -14,15 -21,24c-7,9 -13,18 -13,30c0,6 3,11 5,17c2,4 9,10 13,13c1,1 2,1 3,2c4,2 9,4 13,4c5,1 11,0 16,-1c11,-3 20,-8 30,-12c6,-3 11,-5 17,-8c6,-3 12,-6 18,-10c12,-7 23,-14 35,-21c4,-3 8,-5 13,-8c-3,3 -6,7 -9,10c-5,5 -9,11 -14,16c-7,8 -14,16 -21,24c-7,8 -13,16 -19,25c-4,5 -4,13 -2,19c2,6 6,12 11,15c3,1 6,3 9,5c4,2 7,3 11,4c4,1 8,1 11,2c6,0 12,-1 19,-2c10,-1 20,-6 30,-10c10,-4 20,-9 30,-14c8,-4 16,-7 24,-11c10,-5 20,-10 30,-15c16,-8 33,-17 48,-26c12,-7 24,-14 36,-21c-1,1 -2,3 -3,4c-7,10 -4,25 4,33c8,7 15,15 25,17c5,1 12,2 17,1c8,0 16,-3 23,-5c5,-2 11,-4 16,-6c6,-2 12,-5 18,-7c14,-6 27,-13 40,-20c20,-11 39,-23 58,-36c-1,4 -2,8 -2,12c0,5 1,10 3,14c1,2 2,4 3,7c2,3 4,5 6,8c4,5 11,7 16,9c2,0 5,1 7,1c3,0 7,0 10,0c6,-1 12,-2 18,-4c23,-6 44,-17 65,-28c24,-13 47,-27 70,-41c16,-10 32,-21 48,-31c1,-1 3,-2 4,-2c-1,1 -1,2 -2,3c-9,14 -3,33 11,41c7,4 16,5 23,3c7,-2 15,-7 18,-14c6,-13 11,-27 16,-40c2,-6 4,-12 7,-18c1,-4 3,-7 4,-11c3,-9 4,-18 4,-27c0,-7 -3,-13 -8,-18c-7,-7 -16,-9 -25,-7c-8,2 -16,5 -24,9c-7,3 -13,8 -20,12c-6,4 -13,8 -19,12c-10,6 -20,13 -31,19c-14,8 -27,17 -41,25c-16,9 -31,19 -47,27c-8,4 -16,8 -23,12c-4,2 -8,4 -13,7c12,-14 23,-28 35,-42c17,-20 35,-40 53,-61c3,-3 5,-7 7,-11c2,-7 1,-14 -3,-20c-3,-6 -9,-10 -16,-12c-6,-2 -15,-1 -20,3c-28,20 -57,41 -85,61c-17,12 -34,24 -51,36c-21,14 -42,28 -63,41c-14,8 -28,16 -42,24c5,-5 10,-10 15,-14c11,-11 22,-21 33,-31c26,-24 52,-48 78,-71c1,-1 3,-2 4,-4c10,-9 9,-27 0,-36c-5,-5 -11,-7 -18,-7c-7,0 -13,3 -18,7c-2,1 -3,3 -5,4c-14,10 -29,19 -43,28c-12,7 -23,15 -35,22c-24,15 -49,30 -73,45c-7,4 -15,9 -22,13c-17,10 -35,20 -52,30c-14,8 -28,16 -43,24c-18,10 -36,19 -54,28c-8,4 -16,7 -24,11c-6,3 -12,6 -18,8c7,-8 14,-17 22,-25c8,-10 17,-19 25,-29c12,-14 25,-27 37,-41c9,-10 19,-20 29,-31c7,-8 14,-16 21,-25c6,-8 12,-16 17,-24c5,-7 4,-17 0,-24c-2,-4 -5,-6 -8,-8c-5,-3 -13,-5 -18,-2c-4,1 -8,3 -12,5c-5,2 -10,5 -15,8c-5,4 -11,8 -16,11c-9,6 -18,13 -28,19c-14,10 -29,19 -43,29c-17,11 -34,22 -51,33c-9,6 -18,12 -28,17c-1,1 -2,1 -3,2c10,-11 21,-22 32,-33c10,-11 21,-22 31,-33c8,-8 15,-16 23,-25c9,-9 17,-19 26,-29c3,-3 5,-7 6,-11c2,-7 1,-14 -3,-19c-5,-9 -18,-15 -29,-12c-4,2 -9,3 -13,5c-7,4 -13,8 -20,13c-4,3 -9,6 -14,9c-10,6 -19,12 -29,18c-18,11 -36,23 -54,34c-23,14 -45,28 -68,42c-18,11 -36,21 -54,32c-14,8 -28,15 -42,22c-6,3 -12,6 -18,9c4,-4 7,-8 11,-13c6,-7 12,-14 18,-21c9,-10 17,-20 26,-29c13,-15 25,-29 38,-44c6,-7 12,-13 18,-20c7,-7 13,-15 19,-22c5,-7 9,-15 11,-23c2,-9 0,-17 -6,-24c-8,-8 -20,-10 -30,-4c-59,37 -117,73 -176,109c-10,6 -21,13 -31,19c-16,9 -32,18 -48,27c-46,26 -91,52 -139,73c8,-7 15,-13 23,-20c22,-19 44,-38 66,-56c26,-22 53,-45 79,-67c13,-11 26,-22 38,-33c8,-7 17,-14 25,-21c0,0 0,0 1,0c9,-6 17,-13 25,-21c8,-7 9,-20 4,-28c-3,-5 -8,-9 -14,-11c-2,-1 -4,-1 -7,-1c-4,0 -8,1 -11,3c-10,8 -21,15 -31,24c-4,3 -8,7 -13,10c-13,9 -26,17 -38,26c-15,10 -31,20 -46,30c-34,22 -68,43 -102,65c-11,7 -22,14 -33,21c-19,11 -38,23 -57,34c-20,12 -41,24 -61,36c-10,6 -20,11 -30,16c-25,13 -49,27 -75,38c-10,4 -20,8 -31,11c1,-1 1,-1 2,-2c4,-4 8,-9 13,-13c9,-10 18,-19 28,-29c19,-19 39,-38 58,-57c18,-18 36,-35 55,-52c8,-7 16,-15 23,-22c12,-12 25,-23 37,-35c6,-6 11,-12 16,-18c5,-7 10,-14 14,-21c9,-14 -6,-35 -22,-29c-12,4 -24,9 -35,15c-8,4 -17,9 -25,14c-13,7 -26,14 -39,21c-19,10 -38,20 -56,30c-17,9 -34,18 -51,26c-32,16 -64,33 -96,47c-7,3 -14,6 -22,8c2,-3 4,-5 6,-8c9,-11 18,-23 27,-34c9,-11 18,-23 27,-34c6,-7 11,-14 17,-22c5,-6 10,-12 15,-19c6,-9 11,-18 16,-28c4,-7 4,-15 0,-22c-5,-8 -16,-14 -25,-10c-7,3 -14,5 -20,9c-5,3 -10,7 -15,11c-6,4 -12,8 -18,13c-11,8 -22,15 -33,23c-23,16 -46,32 -70,48c-23,16 -47,31 -71,46c-22,15 -45,28 -68,42c-15,9 -31,17 -46,26c-16,9 -31,18 -48,25c-1,0 -2,1 -3,1c3,-4 7,-8 10,-12c8,-10 16,-20 24,-30c12,-15 24,-30 37,-46c10,-13 21,-26 31,-38c8,-10 16,-20 24,-30c12,-14 22,-30 33,-45c4,-5 4,-13 2,-19c-2,-6 -6,-12 -11,-15c-4,-2 -7,-3 -11,-4c-8,-2 -16,0 -23,4c-9,5 -17,12 -25,19c-33,24 -67,48 -101,70c-21,14 -41,28 -62,42c-27,18 -54,35 -82,52c-10,6 -20,12 -30,17c6,-6 11,-12 17,-17c13,-13 26,-27 38,-40c8,-8 16,-17 24,-25c7,-8 14,-16 21,-24c6,-7 10,-15 15,-23c6,-10 4,-24 -4,-32c-3,-3 -7,-5 -12,-7c-6,-2 -15,-1 -20,3c-17,12 -33,25 -49,37c-15,11 -29,22 -44,33c-12,9 -24,18 -36,27c-6,4 -11,9 -17,13c-22,15 -44,30 -66,45c-15,10 -31,20 -47,29c-11,7 -23,13 -35,20c7,-8 15,-16 22,-25c15,-16 29,-32 44,-49c13,-14 26,-28 39,-41c7,-8 15,-16 22,-23c15,-16 34,-29 45,-49c6,-10 4,-23 -4,-31c-8,-8 -21,-10 -31,-4c-38,24 -76,48 -114,72c-19,12 -39,24 -58,36c-22,13 -43,26 -65,39c-12,7 -24,13 -36,19c-13,6 -25,13 -39,19c-5,2 -11,4 -17,6c-7,2 -15,4 -22,5c-1,0 -2,0 -2,0c4,-4 7,-8 11,-12c6,-7 12,-14 17,-21c8,-10 16,-19 24,-29c11,-13 23,-27 34,-40c10,-12 21,-24 31,-36c7,-8 14,-17 20,-26c6,-8 12,-17 17,-25c6,-9 4,-23 -4,-31c-8,-8 -21,-10 -31,-4c-7,4 -14,8 -21,13c-9,6 -17,12 -25,18c-7,5 -14,10 -21,15c-16,11 -32,23 -48,34c-25,18 -51,36 -76,54c-22,16 -45,31 -68,46c-15,10 -29,19 -44,29c-8,5 -16,10 -24,15c-6,4 -12,7 -18,11c39,-48 79,-96 119,-143c4,-5 7,-10 7,-17c0,-6 -2,-12 -7,-17c-9,-9 -24,-9 -33,0c-8,7 -15,15 -24,21c-5,4 -9,8 -14,11c-8,6 -16,13 -24,19c-18,14 -35,28 -53,42c-22,17 -45,34 -67,51c-18,14 -37,26 -55,38c-15,10 -30,19 -45,28c-15,9 -31,18 -47,25c9,-12 18,-23 27,-35c19,-23 37,-46 56,-69c14,-17 29,-34 43,-50c7,-9 15,-17 22,-25c5,-5 10,-11 15,-16c2,-1 4,-3 5,-4c5,-4 10,-8 15,-12c5,-4 9,-9 13,-14c3,-3 5,-7 6,-11c2,-6 1,-13 -2,-18c-3,-5 -8,-9 -14,-11c-6,-2 -14,-1 -18,2c-4,3 -9,7 -14,10c-6,5 -12,10 -18,16c-4,4 -9,9 -13,13c-8,6 -16,13 -24,19c-17,12 -33,25 -50,37c-13,10 -27,19 -41,29c-18,12 -35,25 -53,36c-22,15 -45,29 -67,43c-11,7 -23,13 -34,19c-12,6 -24,13 -36,18c-7,3 -13,5 -20,6c1,-2 2,-3 3,-5c9,-12 19,-24 28,-36c7,-10 14,-20 22,-30c15,-19 29,-38 44,-57c10,-13 21,-26 31,-40c6,-7 11,-14 16,-21c9,-11 16,-23 24,-34c6,-9 3,-21 -4,-28c-7,-7 -19,-9 -28,-4c-8,5 -15,10 -23,16c-4,3 -9,7 -13,10c-8,6 -15,12 -23,18c-17,13 -34,26 -50,40c-20,15 -40,31 -61,46c-17,13 -34,25 -52,38c-6,4 -12,8 -19,13c5,-7 10,-14 16,-21c10,-14 20,-28 30,-42c6,-8 12,-17 18,-25c7,-9 13,-18 19,-27c7,-11 11,-23 16,-35c1,-4 1,-9 0,-13c-1,-4 -3,-8 -6,-11c-8,-8 -20,-9 -30,-4c-8,4 -15,8 -22,14c-9,6 -16,13 -24,21c-6,6 -13,11 -19,16c-11,9 -21,18 -32,27c-37,31 -73,62 -111,92c-12,9 -24,18 -36,27c-6,4 -12,9 -18,13c5,-8 10,-17 15,-25c10,-17 20,-33 30,-50c9,-15 18,-31 28,-47c5,-9 10,-17 15,-26c6,-10 12,-19 17,-29c2,-5 4,-11 4,-16c0,-4 -1,-9 -2,-13c-1,-8 -9,-14 -16,-16c-7,-2 -17,0 -22,6c-21,24 -42,48 -62,72c-2,-1 -5,-1 -7,-1c-5,0 -12,2 -16,7c-12,15 -24,30 -36,45c-14,18 -28,37 -42,56c-5,6 -4,16 0,22c4,6 12,12 19,11c3,0 7,-1 10,-1c4,-1 8,-3 11,-5c-4,7 -9,13 -13,20c-3,5 -5,11 -6,17c-1,7 -1,13 -1,20c-1,17 17,30 33,25c13,-4 25,-7 38,-12c11,-5 22,-11 32,-18l-2,-1z" class="fil0"/>
  <path transform="rotate(179.78143310546875 1685.8521728515623,276.16619873046875) " id="svg_79" d="m-30.45504,380.291189c10,-7 20,-14 30,-22c10,-8 21,-16 31,-23c24,-19 47,-39 71,-58c-6,8 -12,16 -18,25c-6,8 -12,16 -18,24c-3,4 -6,9 -10,13c-3,5 -6,9 -9,15c-2,5 -4,10 -6,15c-3,9 1,19 7,26c3,3 7,6 12,7c5,1 9,1 14,0c6,-1 11,-2 17,-3c4,-1 7,-2 11,-4c4,-2 8,-3 12,-5c13,-6 24,-14 36,-22c13,-9 26,-17 39,-26c13,-9 26,-19 39,-29c12,-9 24,-18 35,-27c-1,2 -2,3 -3,5c-11,15 -22,29 -33,44c-7,8 -14,17 -20,25c-3,5 -6,10 -8,16c-2,4 -3,8 -3,12c-1,4 -1,8 -2,13c-1,7 -1,13 2,19c3,5 9,10 15,11c9,1 17,3 26,4c4,1 8,1 13,0c4,0 8,-1 12,-2c8,-1 15,-5 23,-8c8,-3 15,-7 23,-10c31,-15 61,-33 90,-52c14,-9 27,-18 40,-27c-9,11 -18,23 -27,34c-6,7 -11,14 -17,21c-5,7 -9,13 -12,21c-2,7 -4,13 -5,20c-2,9 0,18 7,25c3,3 7,5 11,7c5,1 9,1 14,0c2,0 5,-1 7,-1c8,-1 16,-2 24,-4c8,-1 16,-5 24,-8c17,-7 32,-15 47,-24c31,-18 60,-37 89,-57c4,-3 8,-6 13,-9c0,0 -1,1 -1,1c-3,4 -6,9 -7,14c-2,8 0,17 1,24c3,14 19,21 31,18c8,-2 17,-4 25,-7c10,-3 20,-8 30,-12c19,-9 37,-20 55,-31c14,-8 27,-17 40,-26c26,-17 52,-34 77,-52c14,-10 29,-20 43,-30c-6,7 -12,15 -19,22c-3,3 -6,6 -8,10c-6,7 -12,14 -18,21c-6,8 -7,18 -8,27c0,4 1,8 2,12c1,2 1,4 2,5c1,4 3,7 4,11c1,5 4,9 7,12c5,5 13,9 19,8c16,-2 32,-3 48,-6c16,-2 31,-9 45,-15c29,-13 57,-28 85,-44c20,-12 39,-24 59,-36c-5,5 -9,10 -14,15c-9,10 -18,20 -27,30c-6,7 -13,14 -19,21c-10,11 -18,24 -26,36c-7,12 -3,30 10,37c4,2 7,4 11,5c4,2 8,3 12,4c9,2 17,0 26,-2c8,-2 16,-6 24,-9c10,-4 19,-10 28,-15c8,-4 16,-8 23,-12c8,-4 16,-9 23,-13c14,-8 27,-16 40,-25c4,-3 8,-5 12,-8c-2,4 -4,7 -6,11c-5,8 -5,19 0,27c5,8 13,13 23,13c6,0 12,1 19,1c4,-1 9,-1 13,-2c4,-1 8,-2 12,-3c8,-3 16,-6 23,-10c8,-4 15,-8 22,-12c15,-9 30,-18 44,-27c16,-9 31,-19 47,-29c32,-21 63,-43 94,-64c5,-4 10,-7 15,-11c-1,1 -2,3 -3,4c-12,15 -24,29 -35,44c-6,7 -12,15 -18,22c-7,9 -15,18 -22,27c-3,5 -6,9 -9,15c-4,7 -6,15 -9,23c-2,6 -1,14 3,20c4,8 13,13 22,13c4,0 8,0 12,0c4,0 8,0 12,0c10,0 20,-3 29,-6c8,-2 15,-6 23,-9c9,-4 19,-9 28,-14c35,-19 69,-38 102,-59c33,-21 64,-42 96,-64c16,-11 31,-22 46,-33c0,1 -1,1 -1,2c-9,11 -18,22 -27,34c-6,7 -11,14 -17,21c-2,3 -4,5 -6,8c-1,3 -3,6 -4,9c-1,3 -1,7 -1,10c0,6 2,10 4,15c4,12 15,19 28,16c15,-4 31,-8 46,-12c15,-5 29,-11 43,-18c18,-8 36,-18 53,-27c22,-12 44,-23 65,-35c20,-11 41,-22 61,-34c-6,6 -12,11 -18,17c-17,16 -34,32 -51,48c-19,18 -38,36 -57,55c-11,11 -22,23 -34,34c-7,7 -16,14 -23,21c-2,3 -4,5 -6,8c-2,3 -3,6 -4,9c-1,3 -1,7 -2,10c0,5 1,10 1,15c1,6 2,11 6,15c6,6 14,7 21,6c13,-3 26,-6 39,-9c13,-3 26,-7 38,-12c27,-11 53,-24 78,-38c11,-6 23,-12 34,-19c9,-5 18,-10 27,-16c10,-6 20,-12 30,-18c-3,3 -6,5 -9,8c-4,3 -8,6 -11,9c-2,3 -4,5 -6,8c-1,3 -3,6 -4,9c-1,5 -1,9 0,14c0,4 1,7 3,10c4,9 11,16 21,19c13,4 26,2 38,-1c7,-2 14,-5 21,-8c7,-3 13,-6 20,-9c20,-8 39,-16 58,-25c20,-10 40,-21 60,-31c13,-7 25,-14 38,-22c28,-16 56,-31 83,-48c19,-12 37,-23 56,-35c-7,7 -13,15 -20,22c-7,8 -14,15 -20,23c-7,8 -14,17 -21,25c-6,8 -11,18 -16,28c-8,14 -1,33 15,38c6,2 12,3 18,5c4,1 8,1 13,1c4,-1 8,-1 13,-2c8,-1 16,-5 23,-8c8,-3 15,-7 22,-11c13,-7 27,-14 41,-21c17,-9 33,-18 49,-28c14,-8 28,-17 42,-25c-1,1 -3,3 -4,4c-8,7 -14,15 -21,24c-7,9 -13,18 -13,30c0,6 3,11 5,17c2,4 9,10 13,13c1,1 2,1 3,2c4,2 9,4 13,4c5,1 11,0 16,-1c11,-3 20,-8 30,-12c6,-3 11,-5 17,-8c6,-3 12,-6 18,-10c12,-7 23,-14 35,-21c4,-3 8,-5 13,-8c-3,3 -6,7 -9,10c-5,5 -9,11 -14,16c-7,8 -14,16 -21,24c-7,8 -13,16 -19,25c-4,5 -4,13 -2,19c2,6 6,12 11,15c3,1 6,3 9,5c4,2 7,3 11,4c4,1 8,1 11,2c6,0 12,-1 19,-2c10,-1 20,-6 30,-10c10,-4 20,-9 30,-14c8,-4 16,-7 24,-11c10,-5 20,-10 30,-15c16,-8 33,-17 48,-26c12,-7 24,-14 36,-21c-1,1 -2,3 -3,4c-7,10 -4,25 4,33c8,7 15,15 25,17c5,1 12,2 17,1c8,0 16,-3 23,-5c5,-2 11,-4 16,-6c6,-2 12,-5 18,-7c14,-6 27,-13 40,-20c20,-11 39,-23 58,-36c-1,4 -2,8 -2,12c0,5 1,10 3,14c1,2 2,4 3,7c2,3 4,5 6,8c4,5 11,7 16,9c2,0 5,1 7,1c3,0 7,0 10,0c6,-1 12,-2 18,-4c23,-6 44,-17 65,-28c24,-13 47,-27 70,-41c16,-10 32,-21 48,-31c1,-1 3,-2 4,-2c-1,1 -1,2 -2,3c-9,14 -3,33 11,41c7,4 16,5 23,3c7,-2 15,-7 18,-14c6,-13 11,-27 16,-40c2,-6 4,-12 7,-18c1,-4 3,-7 4,-11c3,-9 4,-18 4,-27c0,-7 -3,-13 -8,-18c-7,-7 -16,-9 -25,-7c-8,2 -16,5 -24,9c-7,3 -13,8 -20,12c-6,4 -13,8 -19,12c-10,6 -20,13 -31,19c-14,8 -27,17 -41,25c-16,9 -31,19 -47,27c-8,4 -16,8 -23,12c-4,2 -8,4 -13,7c12,-14 23,-28 35,-42c17,-20 35,-40 53,-61c3,-3 5,-7 7,-11c2,-7 1,-14 -3,-20c-3,-6 -9,-10 -16,-12c-6,-2 -15,-1 -20,3c-28,20 -57,41 -85,61c-17,12 -34,24 -51,36c-21,14 -42,28 -63,41c-14,8 -28,16 -42,24c5,-5 10,-10 15,-14c11,-11 22,-21 33,-31c26,-24 52,-48 78,-71c1,-1 3,-2 4,-4c10,-9 9,-27 0,-36c-5,-5 -11,-7 -18,-7c-7,0 -13,3 -18,7c-2,1 -3,3 -5,4c-14,10 -29,19 -43,28c-12,7 -23,15 -35,22c-24,15 -49,30 -73,45c-7,4 -15,9 -22,13c-17,10 -35,20 -52,30c-14,8 -28,16 -43,24c-18,10 -36,19 -54,28c-8,4 -16,7 -24,11c-6,3 -12,6 -18,8c7,-8 14,-17 22,-25c8,-10 17,-19 25,-29c12,-14 25,-27 37,-41c9,-10 19,-20 29,-31c7,-8 14,-16 21,-25c6,-8 12,-16 17,-24c5,-7 4,-17 0,-24c-2,-4 -5,-6 -8,-8c-5,-3 -13,-5 -18,-2c-4,1 -8,3 -12,5c-5,2 -10,5 -15,8c-5,4 -11,8 -16,11c-9,6 -18,13 -28,19c-14,10 -29,19 -43,29c-17,11 -34,22 -51,33c-9,6 -18,12 -28,17c-1,1 -2,1 -3,2c10,-11 21,-22 32,-33c10,-11 21,-22 31,-33c8,-8 15,-16 23,-25c9,-9 17,-19 26,-29c3,-3 5,-7 6,-11c2,-7 1,-14 -3,-19c-5,-9 -18,-15 -29,-12c-4,2 -9,3 -13,5c-7,4 -13,8 -20,13c-4,3 -9,6 -14,9c-10,6 -19,12 -29,18c-18,11 -36,23 -54,34c-23,14 -45,28 -68,42c-18,11 -36,21 -54,32c-14,8 -28,15 -42,22c-6,3 -12,6 -18,9c4,-4 7,-8 11,-13c6,-7 12,-14 18,-21c9,-10 17,-20 26,-29c13,-15 25,-29 38,-44c6,-7 12,-13 18,-20c7,-7 13,-15 19,-22c5,-7 9,-15 11,-23c2,-9 0,-17 -6,-24c-8,-8 -20,-10 -30,-4c-59,37 -117,73 -176,109c-10,6 -21,13 -31,19c-16,9 -32,18 -48,27c-46,26 -91,52 -139,73c8,-7 15,-13 23,-20c22,-19 44,-38 66,-56c26,-22 53,-45 79,-67c13,-11 26,-22 38,-33c8,-7 17,-14 25,-21c0,0 0,0 1,0c9,-6 17,-13 25,-21c8,-7 9,-20 4,-28c-3,-5 -8,-9 -14,-11c-2,-1 -4,-1 -7,-1c-4,0 -8,1 -11,3c-10,8 -21,15 -31,24c-4,3 -8,7 -13,10c-13,9 -26,17 -38,26c-15,10 -31,20 -46,30c-34,22 -68,43 -102,65c-11,7 -22,14 -33,21c-19,11 -38,23 -57,34c-20,12 -41,24 -61,36c-10,6 -20,11 -30,16c-25,13 -49,27 -75,38c-10,4 -20,8 -31,11c1,-1 1,-1 2,-2c4,-4 8,-9 13,-13c9,-10 18,-19 28,-29c19,-19 39,-38 58,-57c18,-18 36,-35 55,-52c8,-7 16,-15 23,-22c12,-12 25,-23 37,-35c6,-6 11,-12 16,-18c5,-7 10,-14 14,-21c9,-14 -6,-35 -22,-29c-12,4 -24,9 -35,15c-8,4 -17,9 -25,14c-13,7 -26,14 -39,21c-19,10 -38,20 -56,30c-17,9 -34,18 -51,26c-32,16 -64,33 -96,47c-7,3 -14,6 -22,8c2,-3 4,-5 6,-8c9,-11 18,-23 27,-34c9,-11 18,-23 27,-34c6,-7 11,-14 17,-22c5,-6 10,-12 15,-19c6,-9 11,-18 16,-28c4,-7 4,-15 0,-22c-5,-8 -16,-14 -25,-10c-7,3 -14,5 -20,9c-5,3 -10,7 -15,11c-6,4 -12,8 -18,13c-11,8 -22,15 -33,23c-23,16 -46,32 -70,48c-23,16 -47,31 -71,46c-22,15 -45,28 -68,42c-15,9 -31,17 -46,26c-16,9 -31,18 -48,25c-1,0 -2,1 -3,1c3,-4 7,-8 10,-12c8,-10 16,-20 24,-30c12,-15 24,-30 37,-46c10,-13 21,-26 31,-38c8,-10 16,-20 24,-30c12,-14 22,-30 33,-45c4,-5 4,-13 2,-19c-2,-6 -6,-12 -11,-15c-4,-2 -7,-3 -11,-4c-8,-2 -16,0 -23,4c-9,5 -17,12 -25,19c-33,24 -67,48 -101,70c-21,14 -41,28 -62,42c-27,18 -54,35 -82,52c-10,6 -20,12 -30,17c6,-6 11,-12 17,-17c13,-13 26,-27 38,-40c8,-8 16,-17 24,-25c7,-8 14,-16 21,-24c6,-7 10,-15 15,-23c6,-10 4,-24 -4,-32c-3,-3 -7,-5 -12,-7c-6,-2 -15,-1 -20,3c-17,12 -33,25 -49,37c-15,11 -29,22 -44,33c-12,9 -24,18 -36,27c-6,4 -11,9 -17,13c-22,15 -44,30 -66,45c-15,10 -31,20 -47,29c-11,7 -23,13 -35,20c7,-8 15,-16 22,-25c15,-16 29,-32 44,-49c13,-14 26,-28 39,-41c7,-8 15,-16 22,-23c15,-16 34,-29 45,-49c6,-10 4,-23 -4,-31c-8,-8 -21,-10 -31,-4c-38,24 -76,48 -114,72c-19,12 -39,24 -58,36c-22,13 -43,26 -65,39c-12,7 -24,13 -36,19c-13,6 -25,13 -39,19c-5,2 -11,4 -17,6c-7,2 -15,4 -22,5c-1,0 -2,0 -2,0c4,-4 7,-8 11,-12c6,-7 12,-14 17,-21c8,-10 16,-19 24,-29c11,-13 23,-27 34,-40c10,-12 21,-24 31,-36c7,-8 14,-17 20,-26c6,-8 12,-17 17,-25c6,-9 4,-23 -4,-31c-8,-8 -21,-10 -31,-4c-7,4 -14,8 -21,13c-9,6 -17,12 -25,18c-7,5 -14,10 -21,15c-16,11 -32,23 -48,34c-25,18 -51,36 -76,54c-22,16 -45,31 -68,46c-15,10 -29,19 -44,29c-8,5 -16,10 -24,15c-6,4 -12,7 -18,11c39,-48 79,-96 119,-143c4,-5 7,-10 7,-17c0,-6 -2,-12 -7,-17c-9,-9 -24,-9 -33,0c-8,7 -15,15 -24,21c-5,4 -9,8 -14,11c-8,6 -16,13 -24,19c-18,14 -35,28 -53,42c-22,17 -45,34 -67,51c-18,14 -37,26 -55,38c-15,10 -30,19 -45,28c-15,9 -31,18 -47,25c9,-12 18,-23 27,-35c19,-23 37,-46 56,-69c14,-17 29,-34 43,-50c7,-9 15,-17 22,-25c5,-5 10,-11 15,-16c2,-1 4,-3 5,-4c5,-4 10,-8 15,-12c5,-4 9,-9 13,-14c3,-3 5,-7 6,-11c2,-6 1,-13 -2,-18c-3,-5 -8,-9 -14,-11c-6,-2 -14,-1 -18,2c-4,3 -9,7 -14,10c-6,5 -12,10 -18,16c-4,4 -9,9 -13,13c-8,6 -16,13 -24,19c-17,12 -33,25 -50,37c-13,10 -27,19 -41,29c-18,12 -35,25 -53,36c-22,15 -45,29 -67,43c-11,7 -23,13 -34,19c-12,6 -24,13 -36,18c-7,3 -13,5 -20,6c1,-2 2,-3 3,-5c9,-12 19,-24 28,-36c7,-10 14,-20 22,-30c15,-19 29,-38 44,-57c10,-13 21,-26 31,-40c6,-7 11,-14 16,-21c9,-11 16,-23 24,-34c6,-9 3,-21 -4,-28c-7,-7 -19,-9 -28,-4c-8,5 -15,10 -23,16c-4,3 -9,7 -13,10c-8,6 -15,12 -23,18c-17,13 -34,26 -50,40c-20,15 -40,31 -61,46c-17,13 -34,25 -52,38c-6,4 -12,8 -19,13c5,-7 10,-14 16,-21c10,-14 20,-28 30,-42c6,-8 12,-17 18,-25c7,-9 13,-18 19,-27c7,-11 11,-23 16,-35c1,-4 1,-9 0,-13c-1,-4 -3,-8 -6,-11c-8,-8 -20,-9 -30,-4c-8,4 -15,8 -22,14c-9,6 -16,13 -24,21c-6,6 -13,11 -19,16c-11,9 -21,18 -32,27c-37,31 -73,62 -111,92c-12,9 -24,18 -36,27c-6,4 -12,9 -18,13c5,-8 10,-17 15,-25c10,-17 20,-33 30,-50c9,-15 18,-31 28,-47c5,-9 10,-17 15,-26c6,-10 12,-19 17,-29c2,-5 4,-11 4,-16c0,-4 -1,-9 -2,-13c-1,-8 -9,-14 -16,-16c-7,-2 -17,0 -22,6c-21,24 -42,48 -62,72c-2,-1 -5,-1 -7,-1c-5,0 -12,2 -16,7c-12,15 -24,30 -36,45c-14,18 -28,37 -42,56c-5,6 -4,16 0,22c4,6 12,12 19,11c3,0 7,-1 10,-1c4,-1 8,-3 11,-5c-4,7 -9,13 -13,20c-3,5 -5,11 -6,17c-1,7 -1,13 -1,20c-1,17 17,30 33,25c13,-4 25,-7 38,-12c11,-5 22,-11 32,-18l-2,-1z" class="fil0"/>
 </g>
</svg>