<svg version="1.1"
	 xmlns="http://www.w3.org/2000/svg" viewBox="0 0 31.3 22.9">
<defs>
</defs>
<g>
	<g>
		<g>
			<path class="st0" d="M25.8,22.8c8.2-1.4,6.7-15.7-0.9-12.4c0.4,0.5,0.8,1.1,1.2,1.6c3-4.8-3.3-10-7.6-7.4C19,4.8,19.5,5,20,5.2
				C18.1-2.1,7-1.3,4.1,4.8C3.3,6.4,3.7,7.7,3.5,9.2c-0.3,2.2,1.4-1.5,0.3,0.2C3.6,9.7,3,10,2.7,10.3c-2.1,1.7-3.1,4.1-2.6,6.9
				C1,22.3,4,22.9,8,22.9c4.8,0,9.7,0,14.5,0c1.3,0,1.3-2.1,0-2.1c-4.6,0-9.2,0-13.9,0c-1.1,0-2.8,0.3-3.9,0C0.1,19.2,2,12.6,5.5,11
				c0.4-0.2,0.6-0.8,0.5-1.2c-2.7-6.9,10.2-11.1,12-4c0.2,0.7,0.9,1,1.5,0.6c3.3-1,4.9,0.5,4.8,4.5c-0.5,0.7,0.3,1.9,1.2,1.6
				c4.4-1.9,5.7,7.3-0.2,8.3C24,21,24.5,23.1,25.8,22.8L25.8,22.8z"/>
		</g>
	</g>
</g>
</svg>
