<?xml version="1.0" encoding="UTF-8" standalone="no"?>
<svg
   xmlns:dc="http://purl.org/dc/elements/1.1/"
   xmlns:cc="http://creativecommons.org/ns#"
   xmlns:rdf="http://www.w3.org/1999/02/22-rdf-syntax-ns#"
   xmlns:svg="http://www.w3.org/2000/svg"
   xmlns="http://www.w3.org/2000/svg"
   version="1.1"
   id="svg3570"
   viewBox="0 0 419.91341 63.297294"
   height="17.863903mm"
   width="118.5089mm">
  <defs
     id="defs3572" />
  <metadata
     id="metadata3575">
    <rdf:RDF>
      <cc:Work
         rdf:about="">
        <dc:format>image/svg+xml</dc:format>
        <dc:type
           rdf:resource="http://purl.org/dc/dcmitype/StillImage" />
        <dc:title></dc:title>
      </cc:Work>
    </rdf:RDF>
  </metadata>
  <g
     transform="translate(-303.40806,-393.10009)"
     id="layer1">
    <g
       transform="matrix(1.6459542,0,0,-1.6459542,355.00214,413.1944)"
       id="g38">
      <path
         id="path40"
         style="fill:#003761;fill-opacity:1;fill-rule:nonzero;stroke:none"
         d="m 0,0 c -0.535,-0.5 -1.1,-1.045 -1.687,-1.631 -0.997,-0.998 -1.865,-1.928 -2.61,-2.759 0.21,-0.842 0.332,-1.718 0.332,-2.625 0,-0.917 -0.125,-1.801 -0.337,-2.653 -0.755,-3.02 -2.756,-5.544 -5.44,-6.979 -1.532,-0.819 -3.282,-1.288 -5.141,-1.288 -6.03,0 -10.918,4.888 -10.918,10.92 0,6.028 4.888,10.918 10.918,10.918 1.874,0 3.633,-0.478 5.172,-1.311 0.592,0.623 1.211,1.265 1.871,1.925 0.742,0.742 1.464,1.441 2.159,2.094 -2.628,1.781 -5.788,2.837 -9.202,2.837 -9.091,0 -16.463,-7.372 -16.463,-16.463 0,-9.093 7.372,-16.463 16.463,-16.463 9.092,0 16.464,7.37 16.464,16.463 C 1.581,-4.504 1.007,-2.131 0,0" />
    </g>
    <g
       transform="matrix(1.6459542,0,0,-1.6459542,361.08526,393.10009)"
       id="g42">
      <path
         id="path44"
         style="fill:#003761;fill-opacity:1;fill-rule:nonzero;stroke:none"
         d="m 0,0 c 0,0 -4.575,-3.087 -10.357,-8.87 -5.783,-5.782 -8.864,-10.353 -8.864,-10.353 0,0 2.094,-3.137 6.067,-7.48 1.517,1.106 2.67,2.65 3.292,4.43 -1.593,1.84 -2.457,3.05 -2.457,3.05 0,0 2.052,2.857 5.757,6.562 3.706,3.708 6.563,5.759 6.563,5.759 0,0 1.298,-0.929 3.25,-2.634 0.974,1.534 2.17,2.911 3.545,4.088 C 2.813,-1.878 0,0 0,0" />
    </g>
    <g
       transform="matrix(1.6459542,0,0,-1.6459542,418.73744,424.74077)"
       id="g46">
      <path
         id="path48"
         style="fill:#003761;fill-opacity:1;fill-rule:nonzero;stroke:none"
         d="m 0,0 c 0,-9.093 -7.37,-16.463 -16.463,-16.463 -3.409,0 -6.562,1.052 -9.19,2.83 0.698,0.655 1.421,1.355 2.166,2.101 0.658,0.657 1.276,1.297 1.864,1.917 1.538,-0.828 3.293,-1.305 5.16,-1.305 6.031,0 10.92,4.888 10.92,10.92 l 0,10.918 -10.92,0 c -6.029,0 -10.917,-4.89 -10.917,-10.918 0,-0.912 0.123,-1.795 0.336,-2.641 -0.741,-0.828 -1.607,-1.754 -2.597,-2.744 -0.592,-0.591 -1.159,-1.136 -1.699,-1.639 -1.01,2.131 -1.584,4.508 -1.584,7.024 0,9.091 7.371,16.463 16.461,16.463 L 0,16.463 0,0 Z" />
    </g>
    <g
       transform="matrix(1.6459542,0,0,-1.6459542,382.7312,412.42014)"
       id="g50">
      <path
         id="path52"
         style="fill:#003761;fill-opacity:1;fill-rule:nonzero;stroke:none"
         d="m 0,0 c -1.508,-1.094 -2.671,-2.629 -3.302,-4.415 1.603,-1.851 2.474,-3.07 2.474,-3.07 l -0.001,0 c 0,0 -2.052,-2.858 -5.757,-6.564 -3.708,-3.706 -6.564,-5.757 -6.564,-5.757 0,0 -1.301,0.931 -3.26,2.641 -0.973,-1.534 -2.169,-2.913 -3.542,-4.09 3.986,-3.576 6.805,-5.452 6.805,-5.452 0,0 4.574,3.084 10.357,8.867 5.781,5.782 8.866,10.355 8.866,10.355 0,0 -2.097,3.141 -6.076,7.485" />
    </g>
    <g
       transform="matrix(1.6459542,0,0,-1.6459542,513.19513,412.09523)"
       id="g54">
      <path
         id="path56"
         style="fill:#003761;fill-opacity:1;fill-rule:nonzero;stroke:none"
         d="m 0,0 c 0,0 5.444,1.853 9.918,1.853 5.82,0 8.851,-2.706 8.851,-8.618 l 0,-10.535 c 0,-1.368 -5.964,-1.368 -5.964,-1.368 l 0,12.083 c 0,2.586 -1.039,4.188 -3.296,4.188 -1.724,0 -3.543,-0.48 -3.543,-0.48 l 0,-14.423 C 5.966,-18.668 0,-18.668 0,-18.668 L 0,0 Z" />
    </g>
    <g
       transform="matrix(1.6459542,0,0,-1.6459542,637.70136,440.57007)"
       id="g58">
      <path
         id="path60"
         style="fill:#003761;fill-opacity:1;fill-rule:nonzero;stroke:none"
         d="m 0,0 c 0,-1.368 -5.967,-1.368 -5.967,-1.368 l 0,26.058 C -5.967,26.13 0,26.058 0,26.058 L 0,0 Z" />
    </g>
    <g
       transform="matrix(1.6459542,0,0,-1.6459542,649.01828,397.70252)"
       id="g62">
      <path
         id="path64"
         style="fill:#003761;fill-opacity:1;fill-rule:nonzero;stroke:none"
         d="m 0,0 c 2.012,0 3.324,-1.354 3.285,-3.161 0.039,-1.724 -1.273,-3.117 -3.244,-3.117 -2.053,0 -3.364,1.393 -3.364,3.117 C -3.283,-1.354 -2.012,0 0,0 m -2.981,-27.412 0,17.471 c 0,1.366 5.964,1.366 5.964,1.366 l 0,-17.469 c 0,-1.368 -5.964,-1.368 -5.964,-1.368" />
    </g>
    <g
       transform="matrix(1.6459542,0,0,-1.6459542,706.43246,440.57007)"
       id="g66">
      <path
         id="path68"
         style="fill:#003761;fill-opacity:1;fill-rule:nonzero;stroke:none"
         d="m 0,0 c 0,-1.368 -5.964,-1.368 -5.964,-1.368 l 0,26.044 C -5.964,26.07 0,26.044 0,26.044 L 0,0 Z" />
    </g>
    <g
       transform="matrix(1.6459542,0,0,-1.6459542,717.91628,397.70252)"
       id="g70">
      <path
         id="path72"
         style="fill:#003761;fill-opacity:1;fill-rule:nonzero;stroke:none"
         d="m 0,0 c 2.009,0 3.324,-1.354 3.283,-3.161 0.041,-1.724 -1.274,-3.118 -3.242,-3.118 -2.051,0 -3.368,1.394 -3.368,3.118 C -3.285,-1.354 -2.01,0 0,0 m -2.984,-27.412 0,17.471 c 0,1.332 5.967,1.366 5.967,1.366 l 0,-17.469 c 0,-1.368 -5.967,-1.368 -5.967,-1.368" />
    </g>
    <g
       transform="matrix(1.6459542,0,0,-1.6459542,579.03231,397.70252)"
       id="g74">
      <path
         id="path76"
         style="fill:#003761;fill-opacity:1;fill-rule:nonzero;stroke:none"
         d="m 0,0 c 2.011,0 3.325,-1.354 3.284,-3.161 0.041,-1.724 -1.273,-3.118 -3.242,-3.118 -2.053,0 -3.366,1.394 -3.366,3.118 C -3.284,-1.354 -2.011,0 0,0 m -2.983,-27.412 0,17.471 c 0,1.332 5.967,1.366 5.967,1.366 l 0,-17.469 c 0,-1.368 -5.967,-1.368 -5.967,-1.368" />
    </g>
    <g
       transform="matrix(1.6459542,0,0,-1.6459542,604.25803,409.24279)"
       id="g78">
      <path
         id="path80"
         style="fill:#003761;fill-opacity:1;fill-rule:nonzero;stroke:none"
         d="m 0,0 c -5.967,-0.401 -9.001,-4.987 -9.001,-10.064 l 0,-0.274 c 0,-5.786 3.222,-9.764 8.18,-10.027 2.487,-0.133 4.665,0.902 5.374,1.941 l 0,-1.641 c 0,-2.586 -1.309,-4.122 -3.543,-4.43 -2.633,-0.365 -4.976,-0.154 -4.976,-0.154 l -0.922,-3.784 c 0,0 2.746,-0.43 6.363,-0.076 6.629,0.653 9.043,4.57 9.043,8.893 l 0,18.562 C 10.518,-1.054 5.06,0.339 0,0 m 4.553,-12.186 c 0.03,0.029 -0.041,-1.19 -0.205,-1.644 -0.411,-1.474 -1.955,-2.133 -3.558,-2.133 -2.627,0 -3.831,2.477 -3.831,5.474 l 0,0.709 c 0,2.585 1.163,5.238 3.685,5.704 2.438,0.451 3.909,-0.115 3.909,-0.115 l 0,-7.995 z" />
    </g>
    <g
       transform="matrix(1.6459542,0,0,-1.6459542,491.69139,409.04561)"
       id="g82">
      <path
         id="path84"
         style="fill:#003761;fill-opacity:1;fill-rule:nonzero;stroke:none"
         d="m 0,0 c -6.445,0 -10.2,-4.011 -10.2,-10.495 0,-6.486 3.755,-10.497 10.2,-10.497 6.446,0 10.202,4.011 10.202,10.497 C 10.202,-4.011 6.446,0 0,0 m 0,-16.697 c -2.993,0 -4.235,3.244 -4.235,6.202 0,2.957 1.242,6.202 4.235,6.202 2.996,0 4.236,-3.245 4.236,-6.202 0,-2.958 -1.24,-6.202 -4.236,-6.202" />
    </g>
    <g
       transform="matrix(1.6459542,0,0,-1.6459542,675.3659,409.04561)"
       id="g86">
      <path
         id="path88"
         style="fill:#003761;fill-opacity:1;fill-rule:nonzero;stroke:none"
         d="m 0,0 c -6.445,0 -10.2,-4.011 -10.2,-10.495 0,-6.486 3.755,-10.497 10.2,-10.497 6.445,0 10.203,4.011 10.203,10.497 C 10.203,-4.011 6.445,0 0,0 m 0,-16.697 c -2.996,0 -4.234,3.244 -4.234,6.202 0,2.957 1.238,6.202 4.234,6.202 2.996,0 4.237,-3.245 4.237,-6.202 0,-2.958 -1.241,-6.202 -4.237,-6.202" />
    </g>
    <g
       transform="matrix(1.6459542,0,0,-1.6459542,559.91258,411.28164)"
       id="g90">
      <path
         id="path92"
         style="fill:#003761;fill-opacity:1;fill-rule:nonzero;stroke:none"
         d="M 0,0 C 0,2.757 1.352,3.938 3.587,4.257 5.307,4.503 6.39,4.44 6.413,4.44 l 0.415,3.81 c 0,0 -1.24,0.132 -3.975,-0.157 C -3.062,7.469 -5.965,4.864 -5.965,-0.77 l 0,-2.918 0,-15.474 c 0,0 6.007,0 6.007,1.368 l 0,12.351 5.352,0 0,4.054 L 0,-1.389 0,0 Z" />
    </g>
    <g
       transform="matrix(1.6459542,0,0,-1.6459542,436.06159,400.11811)"
       id="g94">
      <path
         id="path96"
         style="fill:#003761;fill-opacity:1;fill-rule:nonzero;stroke:none"
         d="m 0,0 c 1.863,0.633 4.842,1.17 7.676,1.397 4.621,0.371 6.92,-0.331 8.849,-1.561 1.844,-1.172 3.19,-2.777 3.19,-5.28 0,-2.463 -1.027,-4.37 -4.147,-5.522 l 0,-0.079 c 3.162,-0.863 5.502,-3.243 5.502,-6.813 0,-2.506 -1.012,-4.475 -2.737,-5.87 -2.012,-1.602 -5.069,-2.669 -9.783,-2.669 -3.586,0 -8.55,1.262 -8.55,1.262 L 0,0 Z m 5.965,-9.241 2.832,0 c 3.283,0 4.897,1.162 4.897,3.213 0,2.095 -1.449,3.28 -4.282,3.28 -1.355,0 -2.641,-0.159 -3.447,-0.44 l 0,-6.053 z m 0,-11.998 c 0.859,-0.341 2.271,-0.535 3.337,-0.535 2.833,0 5.198,1.288 5.198,4.162 0,2.789 -2.503,3.896 -5.62,3.896 l -2.915,0 0,-7.523 z" />
    </g>
    <g
       transform="matrix(1.6459542,0,0,-1.6459542,513.19513,412.0944)"
       id="g98">
      <path
         id="path100"
         style="fill:#003761;fill-opacity:1;fill-rule:nonzero;stroke:none"
         d="m 0,0 c 0,0 5.444,1.852 9.918,1.852 5.82,0 8.851,-2.706 8.851,-8.617 l 0,-10.535 c 0,-1.368 -5.964,-1.368 -5.964,-1.368 l 0,12.082 c 0,2.586 -1.039,4.188 -3.296,4.188 -1.724,0 -3.543,-0.48 -3.543,-0.48 l 0,-14.422 C 5.966,-18.668 0,-18.668 0,-18.668 L 0,0 Z" />
    </g>
    <g
       transform="matrix(1.6459542,0,0,-1.6459542,637.70136,440.57007)"
       id="g102">
      <path
         id="path104"
         style="fill:#003761;fill-opacity:1;fill-rule:nonzero;stroke:none"
         d="m 0,0 c 0,-1.368 -5.967,-1.368 -5.967,-1.368 l 0,26.058 C -5.967,26.132 0,26.058 0,26.058 L 0,0 Z" />
    </g>
    <g
       transform="matrix(1.6459542,0,0,-1.6459542,649.01828,397.70252)"
       id="g106">
      <path
         id="path108"
         style="fill:#003761;fill-opacity:1;fill-rule:nonzero;stroke:none"
         d="m 0,0 c 2.012,0 3.324,-1.354 3.285,-3.161 0.039,-1.724 -1.273,-3.117 -3.244,-3.117 -2.053,0 -3.364,1.393 -3.364,3.117 C -3.283,-1.354 -2.012,0 0,0 m -2.981,-27.412 0,17.471 c 0,1.366 5.964,1.366 5.964,1.366 l 0,-17.469 c 0,-1.368 -5.964,-1.368 -5.964,-1.368" />
    </g>
    <g
       transform="matrix(1.6459542,0,0,-1.6459542,706.43246,440.57007)"
       id="g110">
      <path
         id="path112"
         style="fill:#003761;fill-opacity:1;fill-rule:nonzero;stroke:none"
         d="m 0,0 c 0,-1.368 -5.964,-1.368 -5.964,-1.368 l 0,26.045 C -5.964,26.07 0,26.044 0,26.044 L 0,0 Z" />
    </g>
    <g
       transform="matrix(1.6459542,0,0,-1.6459542,717.91628,397.70252)"
       id="g114">
      <path
         id="path116"
         style="fill:#003761;fill-opacity:1;fill-rule:nonzero;stroke:none"
         d="m 0,0 c 2.009,0 3.324,-1.354 3.283,-3.161 0.041,-1.724 -1.274,-3.117 -3.242,-3.117 -2.051,0 -3.368,1.393 -3.368,3.117 C -3.285,-1.354 -2.01,0 0,0 m -2.984,-27.412 0,17.471 c 0,1.332 5.967,1.366 5.967,1.366 l 0,-17.469 c 0,-1.368 -5.967,-1.368 -5.967,-1.368" />
    </g>
    <g
       transform="matrix(1.6459542,0,0,-1.6459542,579.03231,397.70252)"
       id="g118">
      <path
         id="path120"
         style="fill:#003761;fill-opacity:1;fill-rule:nonzero;stroke:none"
         d="m 0,0 c 2.011,0 3.325,-1.354 3.284,-3.161 0.041,-1.724 -1.273,-3.117 -3.242,-3.117 -2.053,0 -3.366,1.393 -3.366,3.117 C -3.284,-1.354 -2.011,0 0,0 m -2.983,-27.412 0,17.471 c 0,1.332 5.967,1.366 5.967,1.366 l 0,-17.469 c 0,-1.368 -5.967,-1.368 -5.967,-1.368" />
    </g>
    <g
       transform="matrix(1.6459542,0,0,-1.6459542,604.25803,409.24279)"
       id="g122">
      <path
         id="path124"
         style="fill:#003761;fill-opacity:1;fill-rule:nonzero;stroke:none"
         d="m 0,0 c -5.967,-0.401 -9.001,-4.987 -9.001,-10.064 l 0,-0.274 c 0,-5.786 3.222,-9.764 8.18,-10.027 2.487,-0.133 4.665,0.902 5.374,1.941 l 0,-1.641 c 0,-2.586 -1.309,-4.122 -3.543,-4.43 -2.633,-0.365 -4.976,-0.154 -4.976,-0.154 l -0.922,-3.784 c 0,0 2.746,-0.43 6.363,-0.076 6.629,0.653 9.043,4.57 9.043,8.893 l 0,18.562 C 10.518,-1.054 5.06,0.339 0,0 m 4.553,-12.186 c 0.03,0.029 -0.041,-1.19 -0.205,-1.644 -0.411,-1.472 -1.955,-2.133 -3.558,-2.133 -2.627,0 -3.831,2.478 -3.831,5.474 l 0,0.709 c 0,2.587 1.163,5.238 3.685,5.704 2.438,0.451 3.909,-0.115 3.909,-0.115 l 0,-7.995 z" />
    </g>
    <g
       transform="matrix(1.6459542,0,0,-1.6459542,491.69139,409.04561)"
       id="g126">
      <path
         id="path128"
         style="fill:#003761;fill-opacity:1;fill-rule:nonzero;stroke:none"
         d="m 0,0 c -6.445,0 -10.2,-4.011 -10.2,-10.495 0,-6.486 3.755,-10.497 10.2,-10.497 6.446,0 10.202,4.011 10.202,10.497 C 10.202,-4.011 6.446,0 0,0 m 0,-16.697 c -2.993,0 -4.235,3.244 -4.235,6.202 0,2.957 1.242,6.202 4.235,6.202 2.996,0 4.236,-3.245 4.236,-6.202 0,-2.958 -1.24,-6.202 -4.236,-6.202" />
    </g>
    <g
       transform="matrix(1.6459542,0,0,-1.6459542,675.3659,409.04561)"
       id="g130">
      <path
         id="path132"
         style="fill:#003761;fill-opacity:1;fill-rule:nonzero;stroke:none"
         d="m 0,0 c -6.445,0 -10.2,-4.011 -10.2,-10.495 0,-6.486 3.755,-10.497 10.2,-10.497 6.445,0 10.203,4.011 10.203,10.497 C 10.203,-4.011 6.445,0 0,0 m 0,-16.697 c -2.996,0 -4.234,3.244 -4.234,6.202 0,2.957 1.238,6.202 4.234,6.202 2.996,0 4.237,-3.245 4.237,-6.202 0,-2.958 -1.241,-6.202 -4.237,-6.202" />
    </g>
    <g
       transform="matrix(1.6459542,0,0,-1.6459542,558.44466,414.21747)"
       id="g134">
      <path
         id="path136"
         style="fill:#003761;fill-opacity:1;fill-rule:nonzero;stroke:none"
         d="M 0,0 C 0,2.757 1.352,3.938 3.587,4.257 5.307,4.503 6.39,4.44 6.413,4.44 l 0.415,3.81 c 0,0 -1.24,0.132 -3.975,-0.157 -5.915,-0.624 -8.818,-3.229 -8.818,-8.861 l 0,-2.92 0,-15.474 c 0,0 6.007,0 6.007,1.368 l 0,12.351 5.352,0 0,4.054 L 0,-1.389 0,0 Z" />
    </g>
  </g>
</svg>
