<svg width="222" height="104" viewBox="0 0 222 104" fill="none" xmlns="http://www.w3.org/2000/svg">
<path d="M6.56592 16.8971C6.56592 11.1399 11.2764 6.42871 17.0357 6.42871H71.9983C77.7561 6.42871 82.4666 11.1399 82.4666 16.8971V71.8596C82.4666 77.6175 77.7554 82.3279 71.9983 82.3279H17.0357C11.2764 82.3279 6.56592 77.6175 6.56592 71.8596V16.8971Z" fill="#00461C"/>
<path d="M52.1797 42.2917C52.1737 39.3456 50.0588 38.1265 47.0606 38.1221H43.44L39.9277 50.2812H39.9508H44.9309C48.1066 50.2812 50.9629 47.9909 51.8862 44.3829C52.0838 43.6081 52.1797 42.9113 52.1797 42.2917ZM46.2829 41.9285C47.4239 41.93 48.0791 42.3816 48.0821 43.4276C48.0821 43.6905 48.0397 43.9914 47.9528 44.3316C47.5457 45.9184 46.3809 46.5869 45.0817 46.5884H44.7013L46.0541 41.9285H46.2829Z" fill="#FFF453"/>
<path d="M28.204 45.556C29.507 45.3399 31.3827 45.455 32.3128 42.3491C32.4398 41.925 32.5007 41.5357 32.5007 41.1776C32.5007 39.0048 30.3219 38.0747 28.2375 38.0732H23.8531L20.3008 50.2984H20.3238H23.9341L25.1138 46.3175L25.9108 50.2858L29.9921 50.2984L28.6371 46.4103C28.522 46.0731 28.3541 45.7403 28.204 45.556ZM26.8454 40.9318H27.1314C27.7219 40.9325 28.5413 40.957 28.5428 41.7281C28.5428 41.8366 28.5264 41.9599 28.4915 42.1032C28.233 43.1269 27.1514 43.1655 26.5074 43.1655H26.1552L26.8454 40.9318Z" fill="#FFF453"/>
<path d="M72.3238 38.0439L68.5434 43.5351L68.6355 38.0915L64.038 38.0744L60.3965 50.2974L60.4195 50.2989L63.902 50.333L66.0236 43.6109C66.0311 43.6674 66.0325 43.7424 66.0325 43.833C66.0325 45.2177 65.3016 50.2706 65.3016 50.2788H65.3187V50.2818H65.644L67.7552 50.2989L71.5037 43.6198L69.57 50.2989H73.314L76.9563 38.0439H72.3238ZM65.3194 50.2632C65.3194 50.2632 65.3224 50.2498 65.3253 50.2298C65.3253 50.2409 65.3224 50.2558 65.3209 50.2632H65.3194Z" fill="#FFF453"/>
<path d="M20.2337 46.0236C20.2337 46.0236 20.2322 46.0265 20.2307 46.0332L20.2248 46.0251C20.0517 46.1268 19.8466 46.2212 19.6505 46.2977C19.2041 46.4678 18.7509 46.551 18.3238 46.551C17.3157 46.551 16.4533 46.0964 16.1532 45.3104C16.0781 45.1165 16.0417 44.9152 16.0417 44.7109C16.0417 43.7393 16.8485 42.7127 18.092 42.2372C18.5214 42.0716 18.95 41.9951 19.3549 41.9951C20.0881 41.9951 20.7403 42.2484 21.1719 42.6815L21.1934 42.7045L22.4749 38.4383C21.605 38.0624 20.6214 37.8633 19.6097 37.8633C17.8721 37.8633 16.0395 38.4457 14.5686 39.8177C12.9299 41.3458 12.0816 43.4109 12.0816 45.3134C12.0786 46.658 12.505 47.9238 13.3801 48.8605C14.3332 49.8842 15.6703 50.3864 17.1077 50.3856C17.7473 50.3856 18.407 50.2868 19.0637 50.0892L19.0577 50.0721L19.0748 50.0781C19.0748 50.0751 19.366 49.0708 19.6587 48.0612C19.8043 47.5576 19.9536 47.0539 20.0628 46.6758C20.1193 46.4864 20.1646 46.3296 20.1965 46.2197C20.2136 46.1647 20.2255 46.1209 20.2344 46.0912C20.2404 46.0778 20.2433 46.0667 20.2463 46.0585C20.2463 46.0555 20.2463 46.0548 20.2478 46.0525L20.2983 46.0236H20.2337Z" fill="#FFF453"/>
<path d="M57.0088 45.6316L60.0285 45.6465L61.0254 42.6974H57.8802L58.1951 41.4263L61.61 41.4404L62.6099 38.0508H54.9808L51.4478 50.2619H51.4708H59.1282L60.0939 46.9926H56.595L57.0088 45.6316Z" fill="#FFF453"/>
<path d="M36.7539 45.6593L39.7729 45.6711L40.7698 42.7235H37.6245L37.9395 41.4539L41.3537 41.4666L42.3536 38.0762H34.7244L31.1914 50.288H31.2144H38.874L39.8375 47.0202H36.3379L36.7539 45.6593Z" fill="#FFF453"/>
<path d="M128.157 48.2704C127.965 48.76 127.825 49.2673 127.773 49.7576C126.846 50.2472 125.64 50.5265 124.205 50.5265C120.148 50.5265 117.751 47.9911 117.751 44.6854C117.751 39.8591 121.022 38.0049 124.695 38.0049C125.919 38.0049 127.458 38.3726 128.262 38.8621C128.036 39.4393 127.912 40.0515 127.86 40.6457H127.616C126.742 39.5612 125.849 39.0895 124.607 39.0895C122.735 39.0895 120.62 40.7156 120.62 44.4239C120.62 48.0268 122.753 49.4427 124.765 49.4427C125.884 49.4427 127.178 48.9182 127.93 48.1315L128.157 48.2704Z" fill="black"/>
<path d="M133.108 44.7384H132.95V45.4552C132.95 47.4141 132.985 48.7602 133.09 50.2994C132.705 50.2645 132.234 50.2125 131.656 50.2125C131.078 50.2125 130.606 50.2645 130.222 50.2994C130.327 48.7602 130.362 47.4141 130.362 45.4552V43.0766C130.362 41.1177 130.327 39.7716 130.222 38.2324C130.606 38.2673 131.078 38.3201 131.656 38.3201C132.286 38.3201 133.037 38.2324 134.226 38.2324C135.993 38.2324 136.64 38.3907 137.252 38.8275C137.953 39.3341 138.389 40.1037 138.389 41.1355C138.389 42.8315 137.41 43.916 135.679 44.3528C136.797 46.3288 138.126 48.3227 139.403 50.2987C138.879 50.2637 138.354 50.2117 137.829 50.2117C137.304 50.2117 136.763 50.2637 136.238 50.2987L133.108 44.7384ZM133.002 39.2293C132.968 40.8213 132.95 42.3947 132.95 43.9866C133.09 44.0037 133.212 44.0215 133.335 44.0215C134.873 44.0215 135.714 43.1643 135.714 41.5203C135.714 39.4559 134.908 39.2293 133.002 39.2293Z" fill="black"/>
<path d="M140.891 43.0766C140.891 41.1177 140.856 39.7716 140.751 38.2324C141.782 38.2503 142.831 38.3201 143.864 38.3201C145.577 38.3201 147.047 38.2852 147.519 38.2324C147.483 38.4427 147.449 38.6521 147.449 38.9671C147.449 39.3341 147.483 39.4923 147.519 39.7538C146.19 39.6661 144.091 39.5436 143.566 39.5436C143.479 40.8205 143.479 42.0789 143.479 43.3559C145.001 43.321 146.119 43.2861 147.449 43.2163C147.379 43.6189 147.361 43.7756 147.361 44.0029C147.361 44.1946 147.397 44.3528 147.449 44.7205C146.119 44.6151 144.808 44.5631 143.479 44.5631C143.479 45.2977 143.462 46.0495 143.462 46.8013C143.462 47.536 143.479 48.2885 143.514 48.9875C144.826 48.9875 146.172 48.9177 147.519 48.7602C147.483 49.0053 147.449 49.1799 147.449 49.5476C147.449 49.9146 147.483 50.0892 147.519 50.2987C146.889 50.2816 146.067 50.2117 144.459 50.2117C141.607 50.2117 141.135 50.2637 140.751 50.2987C140.856 48.7595 140.891 47.4134 140.891 45.4545V43.0766Z" fill="black"/>
<path d="M149.792 43.0766C149.792 41.1177 149.758 39.7716 149.653 38.2324C150.038 38.2673 150.51 38.3201 151.088 38.3201C151.856 38.3201 152.713 38.2324 154.253 38.2324C158.24 38.2324 160.986 39.5094 160.986 43.916C160.986 47.7633 158.222 50.2987 154.935 50.2987C153.185 50.2987 151.997 50.2117 151.088 50.2117C150.51 50.2117 150.038 50.2637 149.653 50.2987C149.758 48.7595 149.792 47.4134 149.792 45.4545V43.0766ZM152.381 45.84C152.381 46.7842 152.381 48.9177 152.398 49.2505C152.748 49.2676 153.22 49.3032 153.938 49.3032C156.561 49.3032 158.222 47.5189 158.222 43.8811C158.222 41.0129 156.631 39.2286 154.218 39.2286C153.378 39.2286 152.941 39.2643 152.398 39.3163C152.381 39.6483 152.381 41.7818 152.381 42.726V45.84Z" fill="black"/>
<path d="M163.242 43.0766C163.242 41.1177 163.208 39.7716 163.102 38.2324C164.135 38.2503 165.184 38.3201 166.215 38.3201C167.929 38.3201 169.399 38.2852 169.87 38.2324C169.835 38.4427 169.8 38.6521 169.8 38.9671C169.8 39.3341 169.835 39.4923 169.87 39.7538C168.541 39.6661 166.442 39.5436 165.918 39.5436C165.831 40.8205 165.831 42.0789 165.831 43.3559C167.353 43.321 168.471 43.2861 169.8 43.2163C169.731 43.6189 169.713 43.7756 169.713 44.0029C169.713 44.1946 169.748 44.3528 169.8 44.7205C168.471 44.6151 167.16 44.5631 165.831 44.5631C165.831 45.2977 165.813 46.0495 165.813 46.8013C165.813 47.536 165.831 48.2885 165.865 48.9875C167.177 48.9875 168.523 48.9177 169.87 48.7602C169.835 49.0053 169.8 49.1799 169.8 49.5476C169.8 49.9146 169.835 50.0892 169.87 50.2987C169.241 50.2816 168.419 50.2117 166.81 50.2117C163.959 50.2117 163.487 50.2637 163.102 50.2987C163.208 48.7595 163.242 47.4134 163.242 45.4545V43.0766Z" fill="black"/>
<path d="M173.543 42.3595C173.176 45.0004 173.019 47.6583 172.844 50.2984C172.565 50.2464 172.285 50.2115 172.022 50.2115C171.742 50.2115 171.48 50.2464 171.201 50.2984C171.935 46.2766 172.512 42.254 173.001 38.2314C173.247 38.2842 173.474 38.3191 173.718 38.3191C173.946 38.3191 174.19 38.2842 174.417 38.2314C175.694 41.0127 177.181 44.1253 178.458 46.5908C179.839 43.9856 181.273 41.0127 182.533 38.2314C182.777 38.2842 183.04 38.3191 183.285 38.3191C183.529 38.3191 183.774 38.2842 184.019 38.2314C184.473 42.254 185.085 47.8329 185.523 50.2984C185.051 50.2464 184.579 50.2115 184.107 50.2115C183.635 50.2115 183.144 50.2464 182.655 50.2984C182.533 47.8678 182.235 44.8949 181.956 42.1842H181.92C180.609 44.8949 179.315 47.5885 178.056 50.2984C177.95 50.2813 177.828 50.2635 177.724 50.2635C177.618 50.2635 177.496 50.2806 177.391 50.2984C176.15 47.6576 174.89 44.9996 173.579 42.3595H173.543Z" fill="black"/>
<path d="M189.756 41.0825C189.756 40.4177 189.756 39.7885 189.704 39.5433C189.022 39.5433 187.553 39.6481 186.503 39.7706C186.557 39.5084 186.591 39.264 186.591 39.001C186.591 38.7388 186.557 38.4937 186.503 38.2314C188.096 38.2842 188.882 38.3191 191.051 38.3191C193.219 38.3191 194.007 38.2842 195.494 38.2314C195.44 38.4937 195.405 38.7388 195.405 39.001C195.405 39.264 195.44 39.5084 195.494 39.7706C194.548 39.6481 193.08 39.5433 192.38 39.5433C192.345 39.7877 192.345 40.4177 192.345 41.0825V45.4542C192.345 47.4132 192.38 48.7592 192.485 50.2984C192.1 50.2635 191.628 50.2115 191.051 50.2115C190.473 50.2115 190.002 50.2635 189.616 50.2984C189.722 48.7592 189.756 47.4132 189.756 45.4542V41.0825Z" fill="black"/>
<path d="M197.26 43.0766C197.26 41.1177 197.225 39.7716 197.12 38.2324C198.152 38.2503 199.202 38.3201 200.233 38.3201C201.947 38.3201 203.417 38.2852 203.888 38.2324C203.853 38.4427 203.818 38.6521 203.818 38.9671C203.818 39.3341 203.853 39.4923 203.888 39.7538C202.559 39.6661 200.46 39.5436 199.936 39.5436C199.849 40.8205 199.849 42.0789 199.849 43.3559C201.37 43.321 202.489 43.2861 203.818 43.2163C203.749 43.6189 203.731 43.7756 203.731 44.0029C203.731 44.1946 203.766 44.3528 203.818 44.7205C202.489 44.6151 201.178 44.5631 199.849 44.5631C199.849 45.2977 199.831 46.0495 199.831 46.8013C199.831 47.536 199.849 48.2885 199.884 48.9875C201.195 48.9875 202.542 48.9177 203.888 48.7602C203.853 49.0053 203.818 49.1799 203.818 49.5476C203.818 49.9146 203.853 50.0892 203.888 50.2987C203.259 50.2816 202.437 50.2117 200.828 50.2117C197.977 50.2117 197.505 50.2637 197.12 50.2987C197.225 48.7595 197.26 47.4134 197.26 45.4545V43.0766Z" fill="black"/>
<path d="M206.162 43.0766C206.162 41.1177 206.127 39.7716 206.021 38.2324C206.407 38.2673 206.878 38.3201 207.456 38.3201C208.034 38.3201 208.506 38.2673 208.89 38.2324C208.786 39.7716 208.75 41.1177 208.75 43.0766V45.4552C208.75 46.7493 208.768 48.0783 208.786 48.9875C210.097 48.9875 211.444 48.9177 212.791 48.7602C212.755 49.0053 212.72 49.1799 212.72 49.5476C212.72 49.9146 212.755 50.0892 212.791 50.2987C212.16 50.2816 211.339 50.2117 209.73 50.2117C206.878 50.2117 206.407 50.2637 206.021 50.2987C206.127 48.7595 206.162 47.4134 206.162 45.4545V43.0766Z" fill="black"/>
<path d="M100.095 84.3001C99.9128 82.9481 97.728 66.1587 97.728 44.4317C97.728 22.6697 99.918 5.7756 100.095 4.45703C100.272 5.77486 102.462 22.6697 102.462 44.4317C102.462 66.1587 100.278 82.9481 100.095 84.3001Z" fill="#FFF453"/>
<path d="M12.8644 91.0918V93.1235C12.8644 93.6427 12.8547 94.1546 12.8346 94.659C12.8146 95.1626 12.793 95.6588 12.77 96.1469C12.9513 96.1313 13.1437 96.1231 13.3487 96.1231C13.5537 96.1231 13.7461 96.1313 13.9274 96.1469C13.9036 95.6588 13.8821 95.1626 13.8628 94.659C13.8427 94.1546 13.833 93.6427 13.833 93.1235V91.0918C13.833 90.5718 13.8427 90.0622 13.8628 89.5622C13.8821 89.0623 13.9044 88.5519 13.9274 88.0327C13.8249 88.0483 13.7268 88.0616 13.6325 88.0735C13.5381 88.0854 13.4438 88.0914 13.3487 88.0914C13.2536 88.0914 13.16 88.0854 13.0649 88.0735C12.9706 88.0616 12.8718 88.0483 12.77 88.0327C12.7938 88.5519 12.8153 89.0623 12.8346 89.5622C12.854 90.0622 12.8644 90.5718 12.8644 91.0918ZM28.4985 96.3007H28.6642C28.6642 96.2138 28.6642 96.0838 28.6642 95.9107C28.6642 95.722 28.662 95.4991 28.6582 95.2436C28.6545 94.9873 28.6501 94.7117 28.6464 94.4168C28.6419 94.1211 28.6382 93.8277 28.6345 93.5365C28.63 93.2453 28.6285 92.966 28.6285 92.6978C28.6285 92.4222 28.6285 92.186 28.6285 91.9891C28.6285 91.7611 28.636 91.458 28.6523 91.0799C28.6679 90.7018 28.6857 90.3162 28.7058 89.9225C28.7251 89.5288 28.7452 89.1588 28.7652 88.8119C28.7845 88.4658 28.8024 88.2058 28.8187 88.0327C28.6612 88.072 28.5349 88.0914 28.4406 88.0914C28.3306 88.0914 28.1962 88.072 28.0387 88.0327C28.0781 88.7258 28.1033 89.4634 28.1152 90.2471C28.1271 91.0308 28.133 91.8354 28.133 92.6622V94.269C27.7705 93.9064 27.3478 93.4674 26.8635 92.9519C26.3792 92.4363 25.8673 91.8888 25.328 91.3102C24.7887 90.7315 24.2449 90.1446 23.6982 89.5503C23.1507 88.956 22.6374 88.3989 22.1568 87.8789H21.9681C21.9837 88.1463 21.9933 88.5519 21.9978 89.0957C22.0015 89.6387 22.0037 90.2887 22.0037 91.0442C22.0037 91.3042 22 91.5991 21.9918 91.9304C21.9837 92.261 21.974 92.5998 21.9621 92.9459C21.9502 93.2928 21.9346 93.639 21.9146 93.9852C21.8945 94.3321 21.8774 94.653 21.8611 94.9479C21.8455 95.2436 21.8277 95.4969 21.8076 95.7101C21.7876 95.9226 21.7705 96.0682 21.7541 96.1469C21.8878 96.1313 22.0334 96.1231 22.1909 96.1231C22.3402 96.1231 22.4784 96.1313 22.604 96.1469C22.5958 96.0838 22.5884 95.9634 22.5802 95.7866C22.572 95.6091 22.5646 95.4026 22.5564 95.1663C22.5482 94.9301 22.5408 94.6746 22.5326 94.399C22.5245 94.1234 22.5185 93.8515 22.5148 93.584C22.5104 93.3159 22.5066 93.0603 22.5029 92.8159C22.4992 92.5723 22.497 92.3672 22.497 92.2016C22.497 91.5642 22.5007 91.0606 22.5089 90.6899C22.5163 90.3199 22.5245 90.025 22.5326 89.8044C23.5563 90.8904 24.58 91.9832 25.6036 93.0819C26.628 94.1806 27.593 95.2532 28.4985 96.3007ZM43.3884 96.3007H43.554C43.554 96.2138 43.554 96.0838 43.554 95.9107C43.554 95.722 43.5518 95.4991 43.5481 95.2436C43.5444 94.9873 43.5399 94.7117 43.5362 94.4168C43.5325 94.1211 43.528 93.8277 43.5243 93.5365C43.5206 93.2453 43.5184 92.966 43.5184 92.6978C43.5184 92.4222 43.5184 92.186 43.5184 91.9891C43.5184 91.7611 43.5258 91.458 43.5421 91.0799C43.5577 90.7018 43.5756 90.3162 43.5956 89.9225C43.6149 89.5288 43.635 89.1588 43.6543 88.8119C43.6736 88.4658 43.6914 88.2058 43.7078 88.0327C43.5503 88.072 43.424 88.0914 43.3297 88.0914C43.219 88.0914 43.0853 88.072 42.9278 88.0327C42.9672 88.7258 42.9924 89.4634 43.0043 90.2471C43.0162 91.0308 43.0221 91.8354 43.0221 92.6622V94.269C42.6596 93.9064 42.2369 93.4674 41.7526 92.9519C41.2682 92.4363 40.7564 91.8888 40.2171 91.3102C39.6778 90.7315 39.134 90.1446 38.5873 89.5503C38.0398 88.956 37.5265 88.3989 37.0458 87.8789H36.8572C36.8728 88.1463 36.8824 88.5519 36.8869 89.0957C36.8906 89.6387 36.8928 90.2887 36.8928 91.0442C36.8928 91.3042 36.8884 91.5991 36.8809 91.9304C36.8728 92.261 36.8631 92.5998 36.8512 92.9459C36.8393 93.2928 36.8237 93.639 36.8037 93.9852C36.7836 94.3321 36.7665 94.653 36.7502 94.9479C36.7346 95.2436 36.7168 95.4969 36.6967 95.7101C36.6774 95.9226 36.6596 96.0682 36.6432 96.1469C36.7769 96.1313 36.9225 96.1231 37.08 96.1231C37.2293 96.1231 37.3675 96.1313 37.4938 96.1469C37.4856 96.0838 37.4782 95.9634 37.47 95.7866C37.4618 95.6091 37.4544 95.4026 37.4462 95.1663C37.4381 94.9301 37.4306 94.6746 37.4225 94.399C37.4143 94.1234 37.4084 93.8515 37.4046 93.584C37.4009 93.3159 37.3965 93.0603 37.3928 92.8159C37.389 92.5723 37.3868 92.3672 37.3868 92.2016C37.3868 91.5642 37.3905 91.0606 37.3987 90.6899C37.4061 90.3199 37.4143 90.025 37.4225 89.8044C38.4461 90.8904 39.4698 91.9832 40.4934 93.0819C41.5186 94.1806 42.4828 95.2532 43.3884 96.3007ZM51.2924 93.8968C51.5085 94.4205 51.8124 94.8632 52.2016 95.2258C52.5916 95.5875 53.0581 95.8572 53.6012 96.0347C54.1442 96.2115 54.7392 96.3007 55.3848 96.3007C56.0385 96.3007 56.6365 96.2115 57.1802 96.0347C57.7233 95.8572 58.1898 95.5875 58.5798 95.2258C58.9698 94.8632 59.2729 94.4205 59.489 93.8968C59.7052 93.3731 59.8137 92.7766 59.8137 92.1072C59.8137 91.4379 59.7052 90.8414 59.489 90.3177C59.2721 89.794 58.969 89.3512 58.5798 88.9895C58.1898 88.627 57.7233 88.3514 57.1802 88.1627C56.6372 87.9732 56.0385 87.8789 55.3848 87.8789C54.7392 87.8789 54.1449 87.9732 53.6012 88.1627C53.0581 88.3514 52.5916 88.627 52.2016 88.9895C51.8116 89.3512 51.5085 89.794 51.2924 90.3177C51.0754 90.8414 50.9677 91.4379 50.9677 92.1072C50.9677 92.7766 51.0754 93.3731 51.2924 93.8968ZM58.4089 93.8024C58.2433 94.2786 58.013 94.6723 57.7181 94.9836C57.4232 95.2948 57.0762 95.5251 56.6788 95.6744C56.2814 95.8238 55.8498 95.8988 55.3855 95.8988C54.9286 95.8988 54.5015 95.8238 54.1041 95.6744C53.7066 95.5251 53.3597 95.2948 53.0648 94.9836C52.7692 94.6723 52.5389 94.2786 52.374 93.8024C52.2083 93.3263 52.1258 92.761 52.1258 92.1072C52.1258 91.4535 52.2083 90.889 52.374 90.412C52.5396 89.9359 52.7699 89.5422 53.0648 89.2309C53.3597 88.9204 53.7066 88.6901 54.1041 88.54C54.5015 88.3907 54.9286 88.3157 55.3855 88.3157C55.8498 88.3157 56.2814 88.3907 56.6788 88.54C57.0762 88.6901 57.4232 88.9204 57.7181 89.2309C58.0137 89.5422 58.244 89.9359 58.4089 90.412C58.5746 90.889 58.657 91.4535 58.657 92.1072C58.657 92.761 58.5738 93.3263 58.4089 93.8024ZM69.4604 96.1231C69.5941 96.1231 69.7241 96.1313 69.8504 96.1469C70.3704 94.8001 70.9134 93.454 71.4802 92.1072C72.047 90.7612 72.6376 89.4025 73.252 88.0327C73.0789 88.072 72.9333 88.0914 72.8152 88.0914C72.697 88.0914 72.5514 88.072 72.3784 88.0327C72.2914 88.2919 72.1852 88.5995 72.0597 88.9538C71.9334 89.3082 71.7937 89.69 71.6407 90.0993C71.4869 90.5086 71.328 90.9365 71.1623 91.3807C70.9966 91.8257 70.8295 92.2632 70.6601 92.6919C70.4908 93.1212 70.3236 93.535 70.158 93.9324C69.9923 94.3299 69.8393 94.6902 69.6974 95.0133C69.4456 94.4146 69.1974 93.8121 68.953 93.2059C68.7086 92.5998 68.4709 92.001 68.2384 91.4104C68.0059 90.8199 67.7853 90.239 67.5773 89.6684C67.3685 89.0972 67.1776 88.5519 67.0045 88.0327C66.8938 88.0483 66.7876 88.0616 66.6858 88.0735C66.5833 88.0854 66.4853 88.0914 66.3909 88.0914C66.2966 88.0914 66.1978 88.0854 66.0953 88.0735C65.9928 88.0616 65.8865 88.0483 65.7766 88.0327C66.0604 88.7094 66.3575 89.4263 66.668 90.1818C66.9793 90.938 67.2824 91.6786 67.5773 92.4029C67.8729 93.1272 68.15 93.8158 68.41 94.4695C68.67 95.1232 68.8899 95.6826 69.0712 96.1469C69.1729 96.1313 69.3029 96.1231 69.4604 96.1231ZM82.2361 89.4731L83.5472 92.4735C83.3266 92.4816 83.106 92.4876 82.8861 92.4913C82.6654 92.495 82.4448 92.4972 82.2242 92.4972C82.0199 92.4972 81.8067 92.4935 81.5868 92.4854C81.3662 92.4779 81.1537 92.4735 80.9487 92.4735L82.2361 89.4731ZM85.7854 95.3201C85.6242 94.9583 85.443 94.546 85.2424 94.0855C85.0411 93.6249 84.8272 93.1272 84.5984 92.5916C84.3703 92.056 84.1415 91.5167 83.9134 90.9736C83.6846 90.4299 83.4603 89.8928 83.2404 89.3609C83.0198 88.8298 82.8148 88.3358 82.6261 87.8789H82.4017C81.7874 89.2888 81.1768 90.6743 80.5706 92.0367C79.9644 93.3991 79.3426 94.7689 78.7045 96.1469C78.8382 96.1313 78.9838 96.1231 79.1413 96.1231C79.2988 96.1231 79.4444 96.1313 79.5781 96.1469C79.6806 95.7851 79.8337 95.326 80.0387 94.7711C80.243 94.2155 80.4718 93.6308 80.7236 93.0165C80.9673 93.0091 81.208 93.0031 81.4442 92.9994C81.6804 92.995 81.9204 92.9935 82.1648 92.9935C82.4248 92.9935 82.684 92.995 82.944 92.9994C83.204 93.0031 83.4596 93.0091 83.7121 93.0165C83.8139 93.2765 83.9246 93.5506 84.0427 93.8374C84.1608 94.1256 84.2767 94.4086 84.3911 94.6879C84.5055 94.968 84.6095 95.2354 84.7038 95.491C84.7989 95.7473 84.8732 95.9656 84.9282 96.1469C85.0389 96.1313 85.1429 96.1231 85.2417 96.1231C85.3397 96.1231 85.4445 96.1231 85.5544 96.1231C85.6644 96.1231 85.7691 96.1231 85.8672 96.1231C85.966 96.1231 86.07 96.1313 86.1806 96.1469C86.0789 95.9582 85.9466 95.6826 85.7854 95.3201ZM93.24 93.1235C93.24 93.6427 93.2304 94.1546 93.211 94.659C93.191 95.1626 93.1694 95.6588 93.1457 96.1469C93.3269 96.1313 93.5201 96.1231 93.7244 96.1231C93.9294 96.1231 94.1218 96.1313 94.303 96.1469C94.28 95.6588 94.2577 95.1626 94.2384 94.659C94.2184 94.1546 94.2087 93.6427 94.2087 93.1235V92.261H94.6574C94.91 92.521 95.187 92.8375 95.4901 93.2119C95.7932 93.5855 96.0911 93.9614 96.3823 94.3395C96.6735 94.7176 96.9394 95.072 97.1794 95.4026C97.4193 95.7331 97.5991 95.9812 97.7172 96.1469C97.8272 96.1313 97.9416 96.1231 98.0597 96.1231C98.1778 96.1231 98.2914 96.1231 98.4021 96.1231C98.5202 96.1231 98.6384 96.1231 98.7565 96.1231C98.8746 96.1231 98.9927 96.1313 99.1108 96.1469C99.0001 96.037 98.8545 95.875 98.6733 95.6626C98.492 95.4501 98.2996 95.2161 98.0946 94.9598C97.8903 94.7043 97.6771 94.4361 97.4572 94.1568C97.2366 93.8775 97.0241 93.6093 96.8191 93.3538C96.6141 93.0975 96.4291 92.8635 96.2642 92.651C96.0985 92.4378 95.9685 92.2729 95.8742 92.1548C96.1022 92.1236 96.3563 92.0582 96.6364 91.9594C96.9157 91.8614 97.1772 91.7232 97.4216 91.5464C97.6652 91.3688 97.8725 91.1445 98.0418 90.8734C98.2112 90.6015 98.2959 90.2768 98.2959 89.8987C98.2959 89.5444 98.2305 89.2487 98.1005 89.0125C97.9705 88.7763 97.7937 88.5854 97.5694 88.4398C97.345 88.2942 97.0828 88.1902 96.7834 88.127C96.4841 88.0639 96.1698 88.0327 95.8385 88.0327C95.6105 88.0327 95.3861 88.0423 95.1655 88.0616C94.9449 88.0817 94.7205 88.0914 94.4925 88.0914C94.2637 88.0914 94.0393 88.0854 93.8194 88.0735C93.5988 88.0616 93.3745 88.0483 93.1457 88.0327C93.1694 88.5519 93.191 89.0623 93.211 89.5622C93.2304 90.0622 93.24 90.5718 93.24 91.0918V93.1235ZM94.2087 91.0918C94.2087 90.6661 94.2169 90.2412 94.2325 89.8163C94.2481 89.3906 94.2637 88.962 94.28 88.5282C94.4056 88.5126 94.5593 88.4992 94.7406 88.4873C94.9211 88.4754 95.1499 88.4695 95.4255 88.4695C95.6298 88.4695 95.8385 88.491 96.0517 88.5341C96.2642 88.5779 96.461 88.6582 96.6423 88.7763C96.8228 88.8944 96.9706 89.0541 97.085 89.2547C97.1987 89.456 97.2559 89.7093 97.2559 90.0168C97.2559 90.3712 97.1831 90.6646 97.0375 90.8964C96.8919 91.1289 96.7092 91.3139 96.4885 91.452C96.2679 91.5895 96.0257 91.686 95.762 91.741C95.4983 91.7967 95.2442 91.8242 95.0006 91.8242C94.8424 91.8242 94.699 91.8198 94.569 91.8123C94.439 91.8042 94.3194 91.7886 94.2087 91.7648V91.0918ZM106.158 91.0799V93.1116C106.158 93.6308 106.148 94.1412 106.129 94.6411C106.109 95.1411 106.087 95.6432 106.063 96.1469C106.426 96.1313 106.784 96.1231 107.138 96.1231C107.492 96.1231 107.851 96.1231 108.213 96.1231C108.575 96.1231 108.931 96.1231 109.282 96.1231C109.633 96.1231 109.985 96.1313 110.339 96.1469C110.315 96.0682 110.303 95.9657 110.303 95.8401C110.303 95.7851 110.306 95.7235 110.309 95.6566C110.314 95.5898 110.324 95.5288 110.339 95.4739C110.15 95.5132 109.928 95.543 109.672 95.5623C109.416 95.5816 109.144 95.5979 108.857 95.6091C108.57 95.621 108.276 95.6269 107.977 95.6269C107.686 95.6269 107.41 95.6269 107.15 95.6269C107.142 95.4776 107.136 95.257 107.132 94.9658C107.128 94.6746 107.126 94.3046 107.126 93.8552V93.1465V92.6859C107.126 92.5604 107.128 92.4556 107.132 92.3732C107.136 92.2907 107.138 92.2135 107.138 92.1429C107.28 92.1429 107.471 92.1451 107.711 92.1488C107.952 92.1526 108.207 92.1563 108.479 92.1607C108.751 92.1644 109.022 92.1741 109.294 92.1897C109.566 92.206 109.804 92.2254 110.009 92.2491C109.985 92.131 109.973 92.0129 109.973 91.8948C109.973 91.7692 109.985 91.6467 110.009 91.5286C109.835 91.5442 109.652 91.5583 109.459 91.5702C109.266 91.582 109.055 91.5932 108.827 91.6051C108.599 91.617 108.347 91.6274 108.071 91.6348C107.796 91.643 107.484 91.6467 107.138 91.6467C107.138 91.4974 107.136 91.2767 107.132 90.9855C107.128 90.6943 107.126 90.395 107.126 90.0874C107.126 89.7962 107.132 89.5362 107.144 89.3082C107.156 89.0801 107.166 88.8394 107.174 88.5876C107.559 88.5876 107.89 88.5935 108.166 88.6054C108.441 88.6173 108.695 88.6307 108.928 88.6463C109.16 88.6626 109.38 88.6782 109.589 88.6938C109.798 88.7094 110.028 88.7258 110.28 88.7414C110.257 88.6232 110.245 88.5051 110.245 88.387C110.245 88.2689 110.257 88.1508 110.28 88.0327C109.926 88.0483 109.575 88.0616 109.229 88.0735C108.882 88.0854 108.532 88.0914 108.177 88.0914C107.823 88.0914 107.471 88.0854 107.12 88.0735C106.77 88.0616 106.418 88.0483 106.063 88.0327C106.087 88.5363 106.109 89.0407 106.129 89.5444C106.148 90.048 106.158 90.5599 106.158 91.0799ZM130.479 91.0918V93.1235C130.479 93.6427 130.47 94.1546 130.45 94.659C130.43 95.1626 130.409 95.6588 130.385 96.1469C130.566 96.1313 130.759 96.1231 130.964 96.1231C131.169 96.1231 131.361 96.1313 131.542 96.1469C131.519 95.6588 131.497 95.1626 131.478 94.659C131.458 94.1546 131.448 93.6427 131.448 93.1235V91.0918C131.448 90.5718 131.458 90.0622 131.478 89.5622C131.497 89.0623 131.519 88.5519 131.542 88.0327C131.44 88.0483 131.342 88.0616 131.248 88.0735C131.153 88.0854 131.058 88.0914 130.964 88.0914C130.869 88.0914 130.775 88.0854 130.681 88.0735C130.586 88.0616 130.488 88.0483 130.385 88.0327C130.409 88.5519 130.43 89.0623 130.45 89.5622C130.47 90.0622 130.479 90.5718 130.479 91.0918ZM146.114 96.3007H146.279C146.279 96.2138 146.279 96.0838 146.279 95.9107C146.279 95.722 146.277 95.4991 146.273 95.2436C146.27 94.9873 146.265 94.7117 146.261 94.4168C146.258 94.1211 146.254 93.8277 146.25 93.5365C146.246 93.2453 146.244 92.966 146.244 92.6978C146.244 92.4222 146.244 92.186 146.244 91.9891C146.244 91.7611 146.252 91.458 146.267 91.0799C146.283 90.7018 146.301 90.3162 146.321 89.9225C146.34 89.5288 146.36 89.1588 146.38 88.8119C146.4 88.4658 146.417 88.2058 146.433 88.0327C146.276 88.072 146.149 88.0914 146.055 88.0914C145.944 88.0914 145.811 88.072 145.653 88.0327C145.692 88.7258 145.718 89.4634 145.73 90.2471C145.742 91.0308 145.748 91.8354 145.748 92.6622V94.269C145.386 93.9064 144.962 93.4674 144.478 92.9519C143.993 92.4363 143.482 91.8888 142.942 91.3102C142.403 90.7315 141.86 90.1446 141.313 89.5503C140.765 88.956 140.252 88.3989 139.771 87.8789H139.582C139.598 88.1463 139.608 88.5519 139.611 89.0957C139.616 89.6387 139.617 90.2887 139.617 91.0442C139.617 91.3042 139.614 91.5991 139.606 91.9304C139.598 92.261 139.588 92.5998 139.576 92.9459C139.565 93.2928 139.549 93.639 139.529 93.9852C139.51 94.3321 139.492 94.653 139.476 94.9479C139.46 95.2436 139.442 95.4969 139.423 95.7101C139.403 95.9226 139.386 96.0682 139.37 96.1469C139.504 96.1313 139.649 96.1231 139.807 96.1231C139.956 96.1231 140.094 96.1313 140.22 96.1469C140.212 96.0838 140.204 95.9634 140.197 95.7866C140.189 95.6091 140.18 95.4026 140.173 95.1663C140.165 94.9301 140.157 94.6746 140.149 94.399C140.141 94.1234 140.135 93.8515 140.131 93.584C140.128 93.3159 140.123 93.0603 140.119 92.8159C140.116 92.5723 140.114 92.3672 140.114 92.2016C140.114 91.5642 140.117 91.0606 140.125 90.6899C140.134 90.3199 140.141 90.025 140.149 89.8044C141.173 90.8904 142.197 91.9832 143.22 93.0819C144.244 94.1806 145.208 95.2532 146.114 96.3007ZM154.094 94.6114H153.953C153.929 94.8402 153.903 95.0267 153.876 95.1723C153.848 95.3179 153.799 95.4813 153.728 95.6626C153.933 95.8282 154.187 95.9753 154.49 96.1053C154.793 96.2353 155.189 96.3007 155.677 96.3007C156.134 96.3007 156.541 96.2353 156.9 96.1053C157.258 95.9753 157.561 95.7903 157.809 95.5504C158.057 95.3105 158.246 95.0289 158.376 94.7058C158.506 94.3834 158.571 94.0409 158.571 93.6784C158.571 93.2453 158.478 92.8984 158.294 92.6391C158.109 92.3791 157.878 92.1667 157.603 92.001C157.327 91.8354 157.03 91.6957 156.71 91.582C156.392 91.4676 156.095 91.3376 155.819 91.192C155.543 91.0464 155.313 90.8674 155.128 90.6542C154.942 90.4418 154.85 90.1506 154.85 89.7806C154.85 89.5682 154.887 89.3713 154.963 89.19C155.038 89.0088 155.144 88.8535 155.281 88.7235C155.419 88.5935 155.581 88.4932 155.766 88.4219C155.951 88.3514 156.153 88.3157 156.374 88.3157C156.595 88.3157 156.783 88.3536 156.941 88.4279C157.098 88.5029 157.234 88.5958 157.349 88.7057C157.462 88.8164 157.553 88.936 157.62 89.066C157.687 89.196 157.74 89.3163 157.779 89.4263H157.921C157.969 89.1982 158.016 89.0088 158.063 88.8595C158.11 88.7094 158.169 88.5683 158.24 88.4338C158.004 88.2451 157.748 88.1055 157.473 88.0148C157.197 87.9242 156.87 87.8789 156.492 87.8789C156.098 87.8789 155.744 87.9339 155.429 88.0446C155.114 88.1545 154.844 88.3083 154.62 88.5051C154.396 88.702 154.224 88.936 154.106 89.2079C153.988 89.479 153.929 89.7806 153.929 90.1112C153.929 90.5762 154.021 90.9462 154.206 91.2218C154.391 91.4974 154.622 91.7232 154.898 91.9007C155.173 92.0775 155.471 92.2254 155.789 92.3435C156.108 92.4616 156.405 92.5916 156.681 92.7335C156.956 92.8754 157.187 93.0522 157.372 93.2646C157.557 93.4778 157.649 93.7653 157.649 94.1271C157.649 94.3633 157.61 94.5862 157.531 94.7942C157.453 95.0029 157.34 95.1842 157.195 95.3379C157.049 95.491 156.872 95.6135 156.664 95.7042C156.455 95.7948 156.22 95.8401 155.961 95.8401C155.708 95.8401 155.48 95.8022 155.275 95.7272C155.071 95.6529 154.892 95.5563 154.738 95.4382C154.584 95.3201 154.454 95.1886 154.348 95.0423C154.242 94.8967 154.157 94.7533 154.094 94.6114ZM165.961 91.0918V93.1235C165.961 93.6427 165.951 94.1546 165.932 94.659C165.911 95.1626 165.89 95.6588 165.866 96.1469C166.047 96.1313 166.241 96.1231 166.445 96.1231C166.65 96.1231 166.842 96.1313 167.024 96.1469C167.001 95.6588 166.978 95.1626 166.959 94.659C166.939 94.1546 166.929 93.6427 166.929 93.1235V91.0918C166.929 90.5718 166.939 90.0622 166.959 89.5622C166.978 89.0623 167.001 88.5519 167.024 88.0327C166.922 88.0483 166.823 88.0616 166.729 88.0735C166.634 88.0854 166.54 88.0914 166.445 88.0914C166.351 88.0914 166.256 88.0854 166.162 88.0735C166.067 88.0616 165.969 88.0483 165.866 88.0327C165.89 88.5519 165.911 89.0623 165.932 89.5622C165.951 90.0622 165.961 90.5718 165.961 91.0918ZM174.945 91.0799V93.1116C174.945 93.6308 174.935 94.1412 174.916 94.6411C174.896 95.1411 174.875 95.6432 174.851 96.1469C175.213 96.1313 175.572 96.1231 175.926 96.1231C176.28 96.1231 176.638 96.1231 177.001 96.1231C177.363 96.1231 177.719 96.1231 178.069 96.1231C178.42 96.1231 178.772 96.1313 179.127 96.1469C179.103 96.0682 179.091 95.9657 179.091 95.8401C179.091 95.7851 179.093 95.7235 179.097 95.6566C179.101 95.5898 179.111 95.5288 179.127 95.4739C178.938 95.5132 178.715 95.543 178.459 95.5623C178.204 95.5816 177.932 95.5979 177.644 95.6091C177.357 95.621 177.063 95.6269 176.765 95.6269C176.473 95.6269 176.197 95.6269 175.938 95.6269C175.93 95.4776 175.924 95.257 175.92 94.9658C175.916 94.6746 175.914 94.3046 175.914 93.8552V93.1465V92.6859C175.914 92.5604 175.916 92.4556 175.92 92.3732C175.924 92.2907 175.926 92.2135 175.926 92.1429C176.067 92.1429 176.258 92.1451 176.499 92.1488C176.739 92.1526 176.995 92.1563 177.266 92.1607C177.538 92.1644 177.81 92.1741 178.081 92.1897C178.353 92.206 178.591 92.2254 178.796 92.2491C178.772 92.131 178.761 92.0129 178.761 91.8948C178.761 91.7692 178.772 91.6467 178.796 91.5286C178.623 91.5442 178.44 91.5583 178.247 91.5702C178.053 91.582 177.843 91.5932 177.614 91.6051C177.386 91.617 177.135 91.6274 176.859 91.6348C176.583 91.643 176.272 91.6467 175.926 91.6467C175.926 91.4974 175.924 91.2767 175.92 90.9855C175.916 90.6943 175.914 90.395 175.914 90.0874C175.914 89.7962 175.92 89.5362 175.932 89.3082C175.943 89.0801 175.953 88.8394 175.961 88.5876C176.347 88.5876 176.678 88.5935 176.953 88.6054C177.229 88.6173 177.483 88.6307 177.715 88.6463C177.947 88.6626 178.168 88.6782 178.377 88.6938C178.585 88.7094 178.816 88.7258 179.067 88.7414C179.044 88.6232 179.032 88.5051 179.032 88.387C179.032 88.2689 179.044 88.1508 179.067 88.0327C178.713 88.0483 178.363 88.0616 178.016 88.0735C177.669 88.0854 177.32 88.0914 176.965 88.0914C176.611 88.0914 176.258 88.0854 175.908 88.0735C175.557 88.0616 175.205 88.0483 174.851 88.0327C174.875 88.5363 174.896 89.0407 174.916 89.5444C174.935 90.048 174.945 90.5599 174.945 91.0799ZM187.308 87.8789H187.107C187.044 88.5088 186.969 89.1722 186.882 89.869C186.796 90.5658 186.701 91.273 186.599 91.9891C186.497 92.706 186.391 93.4184 186.28 94.1271C186.17 94.8358 186.064 95.5088 185.961 96.1469C186.087 96.1313 186.225 96.1231 186.375 96.1231C186.524 96.1231 186.662 96.1313 186.788 96.1469C186.788 95.8319 186.807 95.4286 186.847 94.936C186.887 94.4443 186.934 93.9206 186.989 93.3649C187.044 92.81 187.105 92.2469 187.172 91.6764C187.239 91.1051 187.3 90.5762 187.355 90.0874H187.379C187.899 91.1267 188.416 92.1451 188.932 93.1406C189.447 94.1367 189.941 95.1314 190.414 96.1231H190.521C190.993 95.0527 191.491 94.0268 192.015 93.0462C192.538 92.0656 193.072 91.0799 193.615 90.0874H193.639C193.765 91.1111 193.871 92.1154 193.957 93.0997C194.044 94.084 194.13 95.0995 194.217 96.1469C194.312 96.1313 194.405 96.1231 194.495 96.1231C194.586 96.1231 194.678 96.1231 194.773 96.1231C194.867 96.1231 194.959 96.1231 195.05 96.1231C195.141 96.1231 195.234 96.1313 195.328 96.1469C195.234 95.4932 195.147 94.8343 195.068 94.1687C194.989 93.5031 194.91 92.83 194.832 92.1488C194.753 91.4676 194.676 90.7746 194.601 90.0696C194.526 89.3654 194.446 88.6351 194.359 87.8789H194.205C194.009 88.2414 193.796 88.6307 193.568 89.0482C193.339 89.4656 193.109 89.8906 192.877 90.3236C192.645 90.7567 192.417 91.1839 192.192 91.6051C191.967 92.027 191.757 92.4185 191.56 92.7803C191.363 93.1428 191.189 93.4637 191.04 93.743C190.891 94.0231 190.776 94.2378 190.698 94.3871C190.092 93.2765 189.511 92.1942 188.956 91.1386C188.401 90.0837 187.851 88.9969 187.308 87.8789ZM202.753 91.0799V93.1116C202.753 93.6308 202.743 94.1412 202.724 94.6411C202.704 95.1411 202.682 95.6432 202.658 96.1469C203.021 96.1313 203.379 96.1231 203.733 96.1231C204.088 96.1231 204.446 96.1231 204.808 96.1231C205.17 96.1231 205.527 96.1231 205.877 96.1231C206.227 96.1231 206.58 96.1313 206.934 96.1469C206.911 96.0682 206.899 95.9657 206.899 95.8401C206.899 95.7851 206.901 95.7235 206.905 95.6566C206.908 95.5898 206.919 95.5288 206.934 95.4739C206.746 95.5132 206.523 95.543 206.267 95.5623C206.011 95.5816 205.739 95.5979 205.452 95.6091C205.164 95.621 204.871 95.6269 204.572 95.6269C204.281 95.6269 204.005 95.6269 203.745 95.6269C203.737 95.4776 203.731 95.257 203.727 94.9658C203.724 94.6746 203.721 94.3046 203.721 93.8552V93.1465V92.6859C203.721 92.5604 203.724 92.4556 203.727 92.3732C203.731 92.2907 203.733 92.2135 203.733 92.1429C203.875 92.1429 204.066 92.1451 204.306 92.1488C204.546 92.1526 204.802 92.1563 205.074 92.1607C205.345 92.1644 205.617 92.1741 205.889 92.1897C206.161 92.206 206.399 92.2254 206.604 92.2491C206.58 92.131 206.568 92.0129 206.568 91.8948C206.568 91.7692 206.58 91.6467 206.604 91.5286C206.43 91.5442 206.247 91.5583 206.054 91.5702C205.862 91.582 205.651 91.5932 205.423 91.6051C205.194 91.617 204.942 91.6274 204.666 91.6348C204.391 91.643 204.079 91.6467 203.733 91.6467C203.733 91.4974 203.731 91.2767 203.727 90.9855C203.724 90.6943 203.721 90.395 203.721 90.0874C203.721 89.7962 203.727 89.5362 203.739 89.3082C203.751 89.0801 203.761 88.8394 203.769 88.5876C204.155 88.5876 204.485 88.5935 204.761 88.6054C205.036 88.6173 205.29 88.6307 205.523 88.6463C205.755 88.6626 205.975 88.6782 206.184 88.6938C206.393 88.7094 206.623 88.7258 206.875 88.7414C206.852 88.6232 206.84 88.5051 206.84 88.387C206.84 88.2689 206.852 88.1508 206.875 88.0327C206.521 88.0483 206.171 88.0616 205.824 88.0735C205.478 88.0854 205.127 88.0914 204.773 88.0914C204.418 88.0914 204.066 88.0854 203.715 88.0735C203.365 88.0616 203.013 88.0483 202.658 88.0327C202.682 88.5363 202.704 89.0407 202.724 89.5444C202.743 90.048 202.753 90.5599 202.753 91.0799Z" fill="black"/>
</svg>
